<?xml version="1.0" encoding="UTF-8" standalone="no"?>
<!-- Created with Inkscape (http://www.inkscape.org/) -->

<svg
   width="291.78326"
   height="380.31168"
   viewBox="0 0 77.200985 100.62413"
   version="1.1"
   id="svg1"
   xml:space="preserve"
   xmlns:xlink="http://www.w3.org/1999/xlink"
   xmlns="http://www.w3.org/2000/svg"
   xmlns:svg="http://www.w3.org/2000/svg"><defs
     id="defs1"><linearGradient
       id="linearGradient64"><stop
         style="stop-color:#b7b7b7;stop-opacity:1;"
         offset="0"
         id="stop64" /><stop
         style="stop-color:#323232;stop-opacity:1;"
         offset="1"
         id="stop65" /></linearGradient><linearGradient
       xlink:href="#linearGradient64"
       id="linearGradient65"
       x1="105.00001"
       y1="11.654109"
       x2="105.00001"
       y2="221.6541"
       gradientUnits="userSpaceOnUse" /><linearGradient
       xlink:href="#linearGradient64"
       id="linearGradient1"
       gradientUnits="userSpaceOnUse"
       x1="105.00001"
       y1="11.654109"
       x2="105.00001"
       y2="221.6541" /></defs><g
     id="g71"
     transform="matrix(1.0221276,0,0,1.0221276,-68.182058,-40.312039)"
     style="display:inline"><g
       id="layer6"
       style="display:none"
       transform="matrix(1.2429774,0,0,1.2429774,-25.51265,-41.927056)"><rect
         style="display:none;fill:url(#linearGradient1);fill-opacity:1;stroke:none;stroke-width:1.10646;paint-order:markers stroke fill"
         id="rect64"
         width="209.99998"
         height="209.99998"
         x="1.7106397e-05"
         y="11.654109"
         ry="0.56926697" /><rect
         style="display:none;fill:url(#linearGradient65);fill-opacity:1;stroke:none;stroke-width:1.10646;paint-order:markers stroke fill"
         id="rect133"
         width="209.99998"
         height="209.99998"
         x="1.7106397e-05"
         y="11.654109"
         ry="0.56926697" /><rect
         style="display:none;fill:#4f4a45;fill-opacity:1;stroke:none;stroke-width:1.10646;paint-order:markers stroke fill"
         id="rect149"
         width="209.99998"
         height="209.99998"
         x="1.7106397e-05"
         y="11.654109"
         ry="0.56926697" /><rect
         style="display:inline;fill:#4f4a45;fill-opacity:1;stroke:none;stroke-width:0.870899;paint-order:markers stroke fill"
         id="rect2"
         width="165.29166"
         height="165.29164"
         x="22.069635"
         y="42.4492"
         ry="0" /></g><rect
       style="display:none;fill:#4f4a45;fill-opacity:1;stroke-width:3.0509;stroke-linecap:round;stroke-linejoin:round;stroke-dashoffset:344.693;paint-order:stroke fill markers"
       id="rect1"
       width="119.0625"
       height="119.0625"
       x="44.939667"
       y="28.805267"
       ry="1.13455" /><g
       id="g149"
       style="display:none"
       transform="translate(-1.7106397e-5,-11.654109)"><path
         id="path142"
         style="display:inline;fill:#ed7d31;fill-opacity:1;stroke:none;stroke-width:1.05935;paint-order:markers stroke fill"
         d="m 104.7936,51.093521 c -0.0444,-6.67e-4 -0.0938,0.0033 -0.14728,0.01189 -1.12017,0.179394 -3.1899,0.52817 -4.39508,0.838708 -1.32164,0.340552 -3.643742,1.160767 -4.634339,1.517221 -0.259359,0.09333 -0.467386,0.393513 -0.456303,0.668693 0.227635,5.65184 3.205226,9.699804 3.459221,9.994738 1.602211,1.860458 2.903151,3.361499 2.348181,4.386812 -0.5061,0.935022 -7.950521,4.652438 -10.42159,5.867342 -0.436114,0.214417 -0.604908,0.733638 -0.379822,1.16427 0.377593,0.72241 1.080049,2.077166 2.354378,4.562513 0.898033,1.751446 1.805265,4.440148 -0.526583,5.246708 h 0.0047 c -3.598866,1.105195 -7.499247,4.749916 -7.616072,7.546826 -0.116825,2.79691 0,7.715288 0,7.715288 5.9e-5,1.2446 1.009017,2.25356 2.253609,2.25361 0.785001,-0.007 2.600543,-0.73985 5.67924,-0.57309 3.078697,0.16676 3.994809,0.93142 6.15518,3.0918 3.4566,3.45655 4.91356,8.18431 1.58182,11.51609 -3.331766,3.33178 -9.284729,2.87358 -12.291244,-0.22583 -3.006515,-3.09939 -3.011737,-6.39213 -2.912484,-10.00662 0.01347,-0.41229 -0.190155,-0.43152 -0.599446,-0.57929 -0.409293,-0.14777 -0.971611,-0.61295 -1.244369,-0.96377 -0.272758,-0.35082 -0.391878,-0.23591 -0.461987,0.0842 -0.328282,1.49951 -0.502229,3.02912 -0.518315,4.5651 3.1e-5,9.50283 5.907906,17.62156 14.24926,20.89588 0.422576,0.16588 0.937168,0.61447 1.144116,1.01854 0.574034,1.12085 1.15614,2.23745 1.737878,3.35432 0.270481,0.51943 0.788823,0.8635 1.372531,0.91106 0,0 2.62351,0.13848 3.94187,0.13849 1.31838,1e-5 3.9424,-0.13849 3.9424,-0.13849 0.5837,-0.0476 1.10205,-0.39163 1.37253,-0.91106 0.59698,-1.13691 1.18479,-2.27846 1.77095,-3.42098 0.18859,-0.36759 0.65828,-0.77531 1.04334,-0.92501 8.37732,-3.25675 14.31693,-11.394 14.31696,-20.92275 -10e-4,-1.5194 -0.15733,-3.03391 -0.46457,-4.52065 -0.0789,-0.3816 -0.2493,-0.46674 -0.54002,-0.0997 -0.29072,0.36696 -0.79252,0.7993 -1.22008,0.93483 -0.42756,0.13553 -0.56307,0.1863 -0.59945,0.57929 0.0993,3.61449 0.0941,6.90723 -2.91248,10.00662 -3.00653,3.09941 -8.95947,3.5576 -12.29124,0.22583 -3.33178,-3.33177 -1.87475,-8.05954 1.58181,-11.51609 2.16038,-2.16038 3.07705,-2.92508 6.15518,-3.0918 3.07815,-0.16672 4.89677,0.56683 5.67924,0.57309 1.04054,-4e-5 2.03753,-0.78951 2.1668,-1.6676 0.13961,-0.94835 -7e-5,-8.487563 -0.19431,-9.75754 -0.19424,-1.269977 -3.19722,-3.434223 -5.91798,-4.504118 -3.32911,-1.158616 -3.62556,-3.05991 -2.98535,-6.404777 0.57383,-2.378783 2.79585,-6.867435 3.60547,-8.460465 0.16281,-0.320357 0.13425,-0.81961 -0.0827,-1.105359 -0.57939,-0.763259 -1.84537,-2.295455 -3.95841,-4.19716 -2.88619,-2.597531 -6.26533,-4.712574 -8.43618,-6.93446 -3.32017,-3.398242 -2.19492,-6.776062 -1.48156,-8.177279 0.17204,-0.337937 0.0838,-0.561182 -0.22738,-0.565857 z m -0.38654,68.795799 h 0.12816 c 0.48274,0 0.87126,0.38853 0.87126,0.87127 v 6.05389 c 0,0.0121 -0.002,0.0238 -0.002,0.0357 a 0.93544334,2.525697 0 0 1 0.002,0.14159 0.93544334,2.525697 0 0 1 -0.93534,2.52543 0.93544334,2.525697 0 0 1 -0.93586,-2.52543 0.93544334,2.525697 0 0 1 0.003,-0.12196 c -0.001,-0.0184 -0.003,-0.0366 -0.003,-0.0553 v -6.05389 c 0,-0.48274 0.38903,-0.87127 0.87178,-0.87127 z m -4.752679,1.81901 h 0.128157 c 0.482742,0 0.871262,0.38853 0.871262,0.87127 v 6.05389 c 0,0.012 -0.002,0.0237 -0.002,0.0357 a 0.93544334,2.525697 0 0 1 0.002,0.14159 0.93544334,2.525697 0 0 1 -0.93534,2.52543 0.93544334,2.525697 0 0 1 -0.93586,-2.52543 0.93544334,2.525697 0 0 1 0.0031,-0.12196 c -0.0011,-0.0184 -0.0031,-0.0366 -0.0031,-0.0553 v -6.05389 c 0,-0.48274 0.389042,-0.87127 0.871781,-0.87127 z m 9.505359,0 h 0.12816 c 0.48274,0 0.87127,0.38853 0.87127,0.87127 v 6.05389 c 0,0.0121 -0.002,0.0238 -0.002,0.0357 a 0.93544334,2.525697 0 0 1 0.002,0.14159 0.93544334,2.525697 0 0 1 -0.93535,2.52543 0.93544334,2.525697 0 0 1 -0.93586,-2.52543 0.93544334,2.525697 0 0 1 0.003,-0.12196 c -0.001,-0.0184 -0.003,-0.0366 -0.003,-0.0553 v -6.05389 c 0,-0.48274 0.38904,-0.87127 0.87178,-0.87127 z" /><path
         style="fill:#ed7d31;fill-opacity:1;fill-rule:nonzero;stroke:none;stroke-width:1;paint-order:markers stroke fill"
         d="m 69.282057,82.213692 c 0.253293,0.940907 2.697311,3.737421 2.795193,3.875181 0.09788,0.137759 0.575997,0.343742 0.855335,0.153468 0,0 5.376759,-3.854758 5.99008,-4.0802 0.613321,-0.225442 0.08069,-1.296112 0.270432,-3.762793 0.06777,-0.881036 0.374854,-2.468466 0.539641,-3.279667 0.05695,-0.280354 -0.11426,-0.429893 -0.383875,-0.331234 -3.416219,1.250086 -4.987442,2.092557 -6.55334,3.253054 -3.499603,2.593579 -3.785094,3.163172 -3.513466,4.172191 z"
         id="path143" /><path
         style="fill:#ed7d31;fill-opacity:1;fill-rule:nonzero;stroke:none;stroke-width:1;paint-order:markers stroke fill"
         d="m 78.866339,65.327277 c 0.253293,0.940907 1.314898,3.024632 2.189992,3.129319 0.437547,0.05234 1.536839,-0.732024 2.676495,-1.276787 1.139656,-0.544763 2.284757,-0.826136 2.38951,-0.89749 0.104753,-0.07135 1.150039,-0.875383 1.414919,-1.662578 0.26488,-0.787195 -0.09553,-1.108335 0.444997,-3.294383 0.540533,-2.186048 0.753044,-1.717963 0.917831,-2.529164 0.05695,-0.280354 -0.11426,-0.429893 -0.383875,-0.331234 -3.416219,1.250086 -4.636651,1.694994 -6.202549,2.855491 -3.499603,2.593579 -3.718948,2.997807 -3.44732,4.006826 z"
         id="path144" /><path
         style="display:inline;fill:#ed7d31;fill-opacity:1;fill-rule:nonzero;stroke:none;stroke-width:1;paint-order:markers stroke fill"
         d="m 135.46507,92.355553 c -2.77694,-4.327146 -3.07685,-3.629428 -4.39801,-5.235231 -0.20227,-0.245854 -0.15397,-0.77406 -0.0776,-1.09504 0.82099,-3.451078 0.72575,-5.012643 -0.81144,-9.562904 -0.13496,-0.399516 0.0386,-0.640123 0.3556,-0.43475 1.48717,0.963492 5.13966,3.766893 5.99434,4.779307 1.73057,2.049957 2.54086,5.968434 2.5257,6.524082 -0.0939,2.003003 -1.57289,3.478432 -2.65392,5.041754 -0.26702,0.387328 -0.80751,0.180913 -0.93466,-0.01722 -0.12715,-0.198132 -1e-5,2e-6 -1e-5,2e-6 z"
         id="path145" /><path
         id="path146"
         style="fill:#ed7d31;fill-opacity:1;stroke:none;stroke-width:1;paint-order:markers stroke fill"
         d="m 88.376516,80.89015 c -1.773625,0.897044 -6.247743,3.672507 -9.612333,10.12858 -4.290059,8.231894 -4.28966,17.21187 -4.28966,17.21187 -0.104649,4.62673 -2.987489,3.26312 -4.492232,0.54622 -1.153921,-2.08347 -1.636612,-4.02029 -1.940967,-6.23063 -0.159526,-1.15853 -0.430379,-1.17417 -0.61495,-0.0191 -0.403698,2.52638 -0.948316,6.90602 -0.619083,10.61538 0.496093,5.58931 2.282033,10.64948 5.192448,13.95677 2.910413,3.30728 6.945317,7.20989 12.104687,10.31875 5.15937,3.10884 9.888804,6.28385 11.873177,7.37526 1.984373,1.0914 8.493017,4.74596 8.493017,4.74596 0,0 6.50917,-3.65456 8.49354,-4.74596 1.98438,-1.09141 6.71381,-4.26642 11.87318,-7.37526 5.15937,-3.10886 9.19427,-7.01147 12.10469,-10.31875 2.91041,-3.30729 4.69635,-8.36746 5.19244,-13.95677 0.32924,-3.70936 -0.21538,-8.089 -0.61908,-10.61538 -0.18457,-1.15505 -0.45594,-1.13941 -0.61547,0.0191 -0.30435,2.21034 -0.78652,4.14716 -1.94045,6.23063 -1.50474,2.7169 -4.38758,4.08051 -4.49223,-0.54622 0,0 4e-4,-8.979976 -4.28966,-17.21187 -3.36459,-6.456073 -7.83871,-9.231536 -9.61233,-10.12858 -0.41776,-0.211292 -0.62201,-0.0027 -0.4377,0.427881 0.61864,1.43932 0.54972,1.471221 0.72654,1.905826 0.15317,0.376189 0.71015,0.788148 0.99477,1.085206 1.08447,1.131862 2.50825,3.461528 3.93206,5.867858 1.6838,2.845719 1.87069,11.131619 1.87069,11.131619 0,0 3.5572,10.50272 0.37414,19.36368 -3.18306,8.86096 -10.34862,11.84938 -12.58942,12.81679 -2.2408,0.96741 -3.29983,5.78827 -5.82135,6.63318 -2.03593,0.6822 -3.51585,0.73832 -5.14439,0.7519 -1.62854,0.0136 -3.00785,0.0673 -5.143868,-0.7519 -2.985535,-1.14506 -3.664031,-5.70182 -5.82135,-6.63318 -2.157319,-0.93136 -9.406351,-3.95583 -12.589412,-12.81679 -3.183061,-8.86096 0.374137,-19.36368 0.374137,-19.36368 0,0 0.186892,-8.2859 1.870687,-11.131619 1.423813,-2.40633 2.847589,-4.735996 3.93206,-5.867858 0.284619,-0.297058 0.841603,-0.709017 0.994771,-1.085206 0.13964,-0.342979 0.129115,-0.516266 0.726567,-1.905826 0.111193,-0.182892 0.03421,-0.666528 -0.437666,-0.427881 z" /><circle
         style="fill:#202020;fill-opacity:1;stroke:none;stroke-width:1;paint-order:markers stroke fill"
         id="circle146"
         cx="93.924728"
         cy="110.94027"
         r="4.5640626" /><circle
         style="fill:#f6f1ee;fill-opacity:1;stroke:none;stroke-width:1;paint-order:markers stroke fill"
         id="circle147"
         cx="115.01694"
         cy="110.94027"
         r="4.5640626" /><circle
         style="display:inline;fill:#f6f1ee;fill-opacity:1;stroke:none;stroke-width:1;paint-order:markers stroke fill"
         id="circle148"
         cx="93.924728"
         cy="110.94027"
         r="4.5640626" /><path
         style="fill:#ed7d31;fill-opacity:1;fill-rule:nonzero;stroke:none;stroke-width:1;paint-order:markers stroke fill"
         d="m 123.12173,74.478617 c 0,0 0.24845,-0.862943 0.35076,-1.246155 0.10231,-0.383212 0.34359,-0.433259 0.88846,-0.143781 0.54487,0.289478 1.19556,0.937676 1.64796,1.509503 0.4524,0.571827 0.354,0.627465 0.33318,1.058614 -0.0208,0.431149 -0.11097,1.254424 -0.17304,1.453874 -0.0621,0.19945 -0.22352,0.467332 -0.44338,0.526325 -0.21985,0.05899 -0.42108,-0.08081 -0.6345,-0.268952 -0.21342,-0.188141 -1.60243,-1.783723 -1.7675,-2.003988 -0.16507,-0.220265 -0.30988,-0.443816 -0.2019,-0.885438 0.10798,-0.441622 -4e-5,-2e-6 -4e-5,-2e-6 z"
         id="path148" /><path
         style="fill:#ed7d31;fill-opacity:1;fill-rule:nonzero;stroke:none;stroke-width:1;paint-order:markers stroke fill"
         d="m 113.75856,58.55711 c 0.0737,-0.552656 0.27004,-0.970137 0.3028,-1.087834 0.0328,-0.117696 0.29471,-0.369503 0.79324,-0.169443 0.49853,0.20006 1.32286,1.000415 1.60489,1.202218 0.28203,0.201803 0.30561,0.509228 0.21994,0.713603 -0.0857,0.204375 -0.27023,0.55912 -0.30465,0.779733 -0.0344,0.220613 -0.14848,0.575342 -0.55231,0.459901 -0.40384,-0.115441 -1.16245,-0.437715 -1.54909,-0.719765 -0.38665,-0.28205 -0.58856,-0.625757 -0.51482,-1.178413 z"
         id="path149" /></g><g
       id="g8"
       style="display:none"
       transform="translate(-1.7106397e-5,-11.654109)"><path
         id="path1"
         style="display:inline;fill:#4f4a45;fill-opacity:1;stroke:none;stroke-width:1.05935;paint-order:markers stroke fill"
         d="m 104.7936,51.093521 c -0.0444,-6.67e-4 -0.0938,0.0033 -0.14728,0.01189 -1.12017,0.179394 -3.1899,0.52817 -4.39508,0.838708 -1.32164,0.340552 -3.643742,1.160767 -4.634339,1.517221 -0.259359,0.09333 -0.467386,0.393513 -0.456303,0.668693 0.227635,5.65184 3.205226,9.699804 3.459221,9.994738 1.602211,1.860458 2.903151,3.361499 2.348181,4.386812 -0.5061,0.935022 -7.950521,4.652438 -10.42159,5.867342 -0.436114,0.214417 -0.604908,0.733638 -0.379822,1.16427 0.377593,0.72241 1.080049,2.077166 2.354378,4.562513 0.898033,1.751446 1.805265,4.440148 -0.526583,5.246708 h 0.0047 c -3.598866,1.105195 -7.499247,4.749916 -7.616072,7.546826 -0.116825,2.79691 0,7.715288 0,7.715288 5.9e-5,1.2446 1.009017,2.25356 2.253609,2.25361 0.785001,-0.007 2.600543,-0.73985 5.67924,-0.57309 3.078697,0.16676 3.994809,0.93142 6.15518,3.0918 3.4566,3.45655 4.91356,8.18431 1.58182,11.51609 -3.331766,3.33178 -9.284729,2.87358 -12.291244,-0.22583 -3.006515,-3.09939 -3.011737,-6.39213 -2.912484,-10.00662 0.01347,-0.41229 -0.190155,-0.43152 -0.599446,-0.57929 -0.409293,-0.14777 -0.971611,-0.61295 -1.244369,-0.96377 -0.272758,-0.35082 -0.391878,-0.23591 -0.461987,0.0842 -0.328282,1.49951 -0.502229,3.02912 -0.518315,4.5651 3.1e-5,9.50283 5.907906,17.62156 14.24926,20.89588 0.422576,0.16588 0.937168,0.61447 1.144116,1.01854 0.574034,1.12085 1.15614,2.23745 1.737878,3.35432 0.270481,0.51943 0.788823,0.8635 1.372531,0.91106 0,0 2.62351,0.13848 3.94187,0.13849 1.31838,1e-5 3.9424,-0.13849 3.9424,-0.13849 0.5837,-0.0476 1.10205,-0.39163 1.37253,-0.91106 0.59698,-1.13691 1.18479,-2.27846 1.77095,-3.42098 0.18859,-0.36759 0.65828,-0.77531 1.04334,-0.92501 8.37732,-3.25675 14.31693,-11.394 14.31696,-20.92275 -10e-4,-1.5194 -0.15733,-3.03391 -0.46457,-4.52065 -0.0789,-0.3816 -0.2493,-0.46674 -0.54002,-0.0997 -0.29072,0.36696 -0.79252,0.7993 -1.22008,0.93483 -0.42756,0.13553 -0.56307,0.1863 -0.59945,0.57929 0.0993,3.61449 0.0941,6.90723 -2.91248,10.00662 -3.00653,3.09941 -8.95947,3.5576 -12.29124,0.22583 -3.33178,-3.33177 -1.87475,-8.05954 1.58181,-11.51609 2.16038,-2.16038 3.07705,-2.92508 6.15518,-3.0918 3.07815,-0.16672 4.89677,0.56683 5.67924,0.57309 1.04054,-4e-5 2.03753,-0.78951 2.1668,-1.6676 0.13961,-0.94835 -7e-5,-8.487563 -0.19431,-9.75754 -0.19424,-1.269977 -3.19722,-3.434223 -5.91798,-4.504118 -3.32911,-1.158616 -3.62556,-3.05991 -2.98535,-6.404777 0.57383,-2.378783 2.79585,-6.867435 3.60547,-8.460465 0.16281,-0.320357 0.13425,-0.81961 -0.0827,-1.105359 -0.57939,-0.763259 -1.84537,-2.295455 -3.95841,-4.19716 -2.88619,-2.597531 -6.26533,-4.712574 -8.43618,-6.93446 -3.32017,-3.398242 -2.19492,-6.776062 -1.48156,-8.177279 0.17204,-0.337937 0.0838,-0.561182 -0.22738,-0.565857 z m -0.38654,68.795799 h 0.12816 c 0.48274,0 0.87126,0.38853 0.87126,0.87127 v 6.05389 c 0,0.0121 -0.002,0.0238 -0.002,0.0357 a 0.93544334,2.525697 0 0 1 0.002,0.14159 0.93544334,2.525697 0 0 1 -0.93534,2.52543 0.93544334,2.525697 0 0 1 -0.93586,-2.52543 0.93544334,2.525697 0 0 1 0.003,-0.12196 c -0.001,-0.0184 -0.003,-0.0366 -0.003,-0.0553 v -6.05389 c 0,-0.48274 0.38903,-0.87127 0.87178,-0.87127 z m -4.752679,1.81901 h 0.128157 c 0.482742,0 0.871262,0.38853 0.871262,0.87127 v 6.05389 c 0,0.012 -0.002,0.0237 -0.002,0.0357 a 0.93544334,2.525697 0 0 1 0.002,0.14159 0.93544334,2.525697 0 0 1 -0.93534,2.52543 0.93544334,2.525697 0 0 1 -0.93586,-2.52543 0.93544334,2.525697 0 0 1 0.0031,-0.12196 c -0.0011,-0.0184 -0.0031,-0.0366 -0.0031,-0.0553 v -6.05389 c 0,-0.48274 0.389042,-0.87127 0.871781,-0.87127 z m 9.505359,0 h 0.12816 c 0.48274,0 0.87127,0.38853 0.87127,0.87127 v 6.05389 c 0,0.0121 -0.002,0.0238 -0.002,0.0357 a 0.93544334,2.525697 0 0 1 0.002,0.14159 0.93544334,2.525697 0 0 1 -0.93535,2.52543 0.93544334,2.525697 0 0 1 -0.93586,-2.52543 0.93544334,2.525697 0 0 1 0.003,-0.12196 c -0.001,-0.0184 -0.003,-0.0366 -0.003,-0.0553 v -6.05389 c 0,-0.48274 0.38904,-0.87127 0.87178,-0.87127 z" /><path
         style="fill:#4f4a45;fill-opacity:1;fill-rule:nonzero;stroke:none;stroke-width:1;paint-order:markers stroke fill"
         d="m 69.282057,82.213692 c 0.253293,0.940907 2.697311,3.737421 2.795193,3.875181 0.09788,0.137759 0.575997,0.343742 0.855335,0.153468 0,0 5.376759,-3.854758 5.99008,-4.0802 0.613321,-0.225442 0.08069,-1.296112 0.270432,-3.762793 0.06777,-0.881036 0.374854,-2.468466 0.539641,-3.279667 0.05695,-0.280354 -0.11426,-0.429893 -0.383875,-0.331234 -3.416219,1.250086 -4.987442,2.092557 -6.55334,3.253054 -3.499603,2.593579 -3.785094,3.163172 -3.513466,4.172191 z"
         id="path2" /><path
         style="fill:#4f4a45;fill-opacity:1;fill-rule:nonzero;stroke:none;stroke-width:1;paint-order:markers stroke fill"
         d="m 78.866339,65.327277 c 0.253293,0.940907 1.314898,3.024632 2.189992,3.129319 0.437547,0.05234 1.536839,-0.732024 2.676495,-1.276787 1.139656,-0.544763 2.284757,-0.826136 2.38951,-0.89749 0.104753,-0.07135 1.150039,-0.875383 1.414919,-1.662578 0.26488,-0.787195 -0.09553,-1.108335 0.444997,-3.294383 0.540533,-2.186048 0.753044,-1.717963 0.917831,-2.529164 0.05695,-0.280354 -0.11426,-0.429893 -0.383875,-0.331234 -3.416219,1.250086 -4.636651,1.694994 -6.202549,2.855491 -3.499603,2.593579 -3.718948,2.997807 -3.44732,4.006826 z"
         id="path3" /><path
         style="display:inline;fill:#4f4a45;fill-opacity:1;fill-rule:nonzero;stroke:none;stroke-width:1;paint-order:markers stroke fill"
         d="m 135.46507,92.355553 c -2.77694,-4.327146 -3.07685,-3.629428 -4.39801,-5.235231 -0.20227,-0.245854 -0.15397,-0.77406 -0.0776,-1.09504 0.82099,-3.451078 0.72575,-5.012643 -0.81144,-9.562904 -0.13496,-0.399516 0.0386,-0.640123 0.3556,-0.43475 1.48717,0.963492 5.13966,3.766893 5.99434,4.779307 1.73057,2.049957 2.54086,5.968434 2.5257,6.524082 -0.0939,2.003003 -1.57289,3.478432 -2.65392,5.041754 -0.26702,0.387328 -0.80751,0.180913 -0.93466,-0.01722 -0.12715,-0.198132 -1e-5,2e-6 -1e-5,2e-6 z"
         id="path4" /><path
         id="path5"
         style="fill:#4f4a45;fill-opacity:1;stroke:none;stroke-width:1;paint-order:markers stroke fill"
         d="m 88.376516,80.89015 c -1.773625,0.897044 -6.247743,3.672507 -9.612333,10.12858 -4.290059,8.231894 -4.28966,17.21187 -4.28966,17.21187 -0.104649,4.62673 -2.987489,3.26312 -4.492232,0.54622 -1.153921,-2.08347 -1.636612,-4.02029 -1.940967,-6.23063 -0.159526,-1.15853 -0.430379,-1.17417 -0.61495,-0.0191 -0.403698,2.52638 -0.948316,6.90602 -0.619083,10.61538 0.496093,5.58931 2.282033,10.64948 5.192448,13.95677 2.910413,3.30728 6.945317,7.20989 12.104687,10.31875 5.15937,3.10884 9.888804,6.28385 11.873177,7.37526 1.984373,1.0914 8.493017,4.74596 8.493017,4.74596 0,0 6.50917,-3.65456 8.49354,-4.74596 1.98438,-1.09141 6.71381,-4.26642 11.87318,-7.37526 5.15937,-3.10886 9.19427,-7.01147 12.10469,-10.31875 2.91041,-3.30729 4.69635,-8.36746 5.19244,-13.95677 0.32924,-3.70936 -0.21538,-8.089 -0.61908,-10.61538 -0.18457,-1.15505 -0.45594,-1.13941 -0.61547,0.0191 -0.30435,2.21034 -0.78652,4.14716 -1.94045,6.23063 -1.50474,2.7169 -4.38758,4.08051 -4.49223,-0.54622 0,0 4e-4,-8.979976 -4.28966,-17.21187 -3.36459,-6.456073 -7.83871,-9.231536 -9.61233,-10.12858 -0.41776,-0.211292 -0.62201,-0.0027 -0.4377,0.427881 0.61864,1.43932 0.54972,1.471221 0.72654,1.905826 0.15317,0.376189 0.71015,0.788148 0.99477,1.085206 1.08447,1.131862 2.50825,3.461528 3.93206,5.867858 1.6838,2.845719 1.87069,11.131619 1.87069,11.131619 0,0 3.5572,10.50272 0.37414,19.36368 -3.18306,8.86096 -10.34862,11.84938 -12.58942,12.81679 -2.2408,0.96741 -3.29983,5.78827 -5.82135,6.63318 -2.03593,0.6822 -3.51585,0.73832 -5.14439,0.7519 -1.62854,0.0136 -3.00785,0.0673 -5.143868,-0.7519 -2.985535,-1.14506 -3.664031,-5.70182 -5.82135,-6.63318 -2.157319,-0.93136 -9.406351,-3.95583 -12.589412,-12.81679 -3.183061,-8.86096 0.374137,-19.36368 0.374137,-19.36368 0,0 0.186892,-8.2859 1.870687,-11.131619 1.423813,-2.40633 2.847589,-4.735996 3.93206,-5.867858 0.284619,-0.297058 0.841603,-0.709017 0.994771,-1.085206 0.13964,-0.342979 0.129115,-0.516266 0.726567,-1.905826 0.111193,-0.182892 0.03421,-0.666528 -0.437666,-0.427881 z" /><path
         style="fill:#4f4a45;fill-opacity:1;fill-rule:nonzero;stroke:none;stroke-width:1;paint-order:markers stroke fill"
         d="m 123.12173,74.478617 c 0,0 0.24845,-0.862943 0.35076,-1.246155 0.10231,-0.383212 0.34359,-0.433259 0.88846,-0.143781 0.54487,0.289478 1.19556,0.937676 1.64796,1.509503 0.4524,0.571827 0.354,0.627465 0.33318,1.058614 -0.0208,0.431149 -0.11097,1.254424 -0.17304,1.453874 -0.0621,0.19945 -0.22352,0.467332 -0.44338,0.526325 -0.21985,0.05899 -0.42108,-0.08081 -0.6345,-0.268952 -0.21342,-0.188141 -1.60243,-1.783723 -1.7675,-2.003988 -0.16507,-0.220265 -0.30988,-0.443816 -0.2019,-0.885438 0.10798,-0.441622 -4e-5,-2e-6 -4e-5,-2e-6 z"
         id="path7" /><path
         style="fill:#4f4a45;fill-opacity:1;fill-rule:nonzero;stroke:none;stroke-width:1;paint-order:markers stroke fill"
         d="m 113.75856,58.55711 c 0.0737,-0.552656 0.27004,-0.970137 0.3028,-1.087834 0.0328,-0.117696 0.29471,-0.369503 0.79324,-0.169443 0.49853,0.20006 1.32286,1.000415 1.60489,1.202218 0.28203,0.201803 0.30561,0.509228 0.21994,0.713603 -0.0857,0.204375 -0.27023,0.55912 -0.30465,0.779733 -0.0344,0.220613 -0.14848,0.575342 -0.55231,0.459901 -0.40384,-0.115441 -1.16245,-0.437715 -1.54909,-0.719765 -0.38665,-0.28205 -0.58856,-0.625757 -0.51482,-1.178413 z"
         id="path8" /><circle
         style="display:inline;fill:#1c1c1c;fill-opacity:1;stroke:none;stroke-width:1;paint-order:markers stroke fill"
         id="circle5"
         cx="93.924728"
         cy="110.94027"
         r="4.5640626" /><circle
         style="display:inline;fill:#1c1c1c;fill-opacity:1;stroke:none;stroke-width:1;paint-order:markers stroke fill"
         id="circle6"
         cx="115.01694"
         cy="110.94027"
         r="4.5640626" /><circle
         style="display:inline;fill:#1c1c1c;fill-opacity:1;stroke:none;stroke-width:1;paint-order:markers stroke fill"
         id="circle7"
         cx="93.924728"
         cy="110.94027"
         r="4.5640626" /></g><g
       id="g25"
       style="display:inline"
       transform="translate(-1.7106397e-5,-11.654109)"><path
         id="path17"
         style="display:inline;fill:#1c1c1c;fill-opacity:1;stroke:none;stroke-width:1.05935;paint-order:markers stroke fill"
         d="m 104.7936,51.093521 c -0.0444,-6.67e-4 -0.0938,0.0033 -0.14728,0.01189 -1.12017,0.179394 -3.1899,0.52817 -4.39508,0.838708 -1.32164,0.340552 -3.643742,1.160767 -4.634339,1.517221 -0.259359,0.09333 -0.467386,0.393513 -0.456303,0.668693 0.227635,5.65184 3.205226,9.699804 3.459221,9.994738 1.602211,1.860458 2.903151,3.361499 2.348181,4.386812 -0.5061,0.935022 -7.950521,4.652438 -10.42159,5.867342 -0.436114,0.214417 -0.604908,0.733638 -0.379822,1.16427 0.377593,0.72241 1.080049,2.077166 2.354378,4.562513 0.898033,1.751446 1.805265,4.440148 -0.526583,5.246708 h 0.0047 c -3.598866,1.105195 -7.499247,4.749916 -7.616072,7.546826 -0.116825,2.79691 0,7.715288 0,7.715288 5.9e-5,1.2446 1.009017,2.25356 2.253609,2.25361 0.785001,-0.007 2.600543,-0.73985 5.67924,-0.57309 3.078697,0.16676 3.994809,0.93142 6.15518,3.0918 3.4566,3.45655 4.91356,8.18431 1.58182,11.51609 -3.331766,3.33178 -9.284729,2.87358 -12.291244,-0.22583 -3.006515,-3.09939 -3.011737,-6.39213 -2.912484,-10.00662 0.01347,-0.41229 -0.190155,-0.43152 -0.599446,-0.57929 -0.409293,-0.14777 -0.971611,-0.61295 -1.244369,-0.96377 -0.272758,-0.35082 -0.391878,-0.23591 -0.461987,0.0842 -0.328282,1.49951 -0.502229,3.02912 -0.518315,4.5651 3.1e-5,9.50283 5.907906,17.62156 14.24926,20.89588 0.422576,0.16588 0.937168,0.61447 1.144116,1.01854 0.574034,1.12085 1.15614,2.23745 1.737878,3.35432 0.270481,0.51943 0.788823,0.8635 1.372531,0.91106 0,0 2.62351,0.13848 3.94187,0.13849 1.31838,1e-5 3.9424,-0.13849 3.9424,-0.13849 0.5837,-0.0476 1.10205,-0.39163 1.37253,-0.91106 0.59698,-1.13691 1.18479,-2.27846 1.77095,-3.42098 0.18859,-0.36759 0.65828,-0.77531 1.04334,-0.92501 8.37732,-3.25675 14.31693,-11.394 14.31696,-20.92275 -10e-4,-1.5194 -0.15733,-3.03391 -0.46457,-4.52065 -0.0789,-0.3816 -0.2493,-0.46674 -0.54002,-0.0997 -0.29072,0.36696 -0.79252,0.7993 -1.22008,0.93483 -0.42756,0.13553 -0.56307,0.1863 -0.59945,0.57929 0.0993,3.61449 0.0941,6.90723 -2.91248,10.00662 -3.00653,3.09941 -8.95947,3.5576 -12.29124,0.22583 -3.33178,-3.33177 -1.87475,-8.05954 1.58181,-11.51609 2.16038,-2.16038 3.07705,-2.92508 6.15518,-3.0918 3.07815,-0.16672 4.89677,0.56683 5.67924,0.57309 1.04054,-4e-5 2.03753,-0.78951 2.1668,-1.6676 0.13961,-0.94835 -7e-5,-8.487563 -0.19431,-9.75754 -0.19424,-1.269977 -3.19722,-3.434223 -5.91798,-4.504118 -3.32911,-1.158616 -3.62556,-3.05991 -2.98535,-6.404777 0.57383,-2.378783 2.79585,-6.867435 3.60547,-8.460465 0.16281,-0.320357 0.13425,-0.81961 -0.0827,-1.105359 -0.57939,-0.763259 -1.84537,-2.295455 -3.95841,-4.19716 -2.88619,-2.597531 -6.26533,-4.712574 -8.43618,-6.93446 -3.32017,-3.398242 -2.19492,-6.776062 -1.48156,-8.177279 0.17204,-0.337937 0.0838,-0.561182 -0.22738,-0.565857 z m -0.38654,68.795799 h 0.12816 c 0.48274,0 0.87126,0.38853 0.87126,0.87127 v 6.05389 c 0,0.0121 -0.002,0.0238 -0.002,0.0357 a 0.93544334,2.525697 0 0 1 0.002,0.14159 0.93544334,2.525697 0 0 1 -0.93534,2.52543 0.93544334,2.525697 0 0 1 -0.93586,-2.52543 0.93544334,2.525697 0 0 1 0.003,-0.12196 c -0.001,-0.0184 -0.003,-0.0366 -0.003,-0.0553 v -6.05389 c 0,-0.48274 0.38903,-0.87127 0.87178,-0.87127 z m -4.752679,1.81901 h 0.128157 c 0.482742,0 0.871262,0.38853 0.871262,0.87127 v 6.05389 c 0,0.012 -0.002,0.0237 -0.002,0.0357 a 0.93544334,2.525697 0 0 1 0.002,0.14159 0.93544334,2.525697 0 0 1 -0.93534,2.52543 0.93544334,2.525697 0 0 1 -0.93586,-2.52543 0.93544334,2.525697 0 0 1 0.0031,-0.12196 c -0.0011,-0.0184 -0.0031,-0.0366 -0.0031,-0.0553 v -6.05389 c 0,-0.48274 0.389042,-0.87127 0.871781,-0.87127 z m 9.505359,0 h 0.12816 c 0.48274,0 0.87127,0.38853 0.87127,0.87127 v 6.05389 c 0,0.0121 -0.002,0.0238 -0.002,0.0357 a 0.93544334,2.525697 0 0 1 0.002,0.14159 0.93544334,2.525697 0 0 1 -0.93535,2.52543 0.93544334,2.525697 0 0 1 -0.93586,-2.52543 0.93544334,2.525697 0 0 1 0.003,-0.12196 c -0.001,-0.0184 -0.003,-0.0366 -0.003,-0.0553 v -6.05389 c 0,-0.48274 0.38904,-0.87127 0.87178,-0.87127 z" /><path
         style="fill:#1c1c1c;fill-opacity:1;fill-rule:nonzero;stroke:none;stroke-width:1;paint-order:markers stroke fill"
         d="m 69.282057,82.213692 c 0.253293,0.940907 2.697311,3.737421 2.795193,3.875181 0.09788,0.137759 0.575997,0.343742 0.855335,0.153468 0,0 5.376759,-3.854758 5.99008,-4.0802 0.613321,-0.225442 0.08069,-1.296112 0.270432,-3.762793 0.06777,-0.881036 0.374854,-2.468466 0.539641,-3.279667 0.05695,-0.280354 -0.11426,-0.429893 -0.383875,-0.331234 -3.416219,1.250086 -4.987442,2.092557 -6.55334,3.253054 -3.499603,2.593579 -3.785094,3.163172 -3.513466,4.172191 z"
         id="path18" /><path
         style="fill:#1c1c1c;fill-opacity:1;fill-rule:nonzero;stroke:none;stroke-width:1;paint-order:markers stroke fill"
         d="m 78.866339,65.327277 c 0.253293,0.940907 1.314898,3.024632 2.189992,3.129319 0.437547,0.05234 1.536839,-0.732024 2.676495,-1.276787 1.139656,-0.544763 2.284757,-0.826136 2.38951,-0.89749 0.104753,-0.07135 1.150039,-0.875383 1.414919,-1.662578 0.26488,-0.787195 -0.09553,-1.108335 0.444997,-3.294383 0.540533,-2.186048 0.753044,-1.717963 0.917831,-2.529164 0.05695,-0.280354 -0.11426,-0.429893 -0.383875,-0.331234 -3.416219,1.250086 -4.636651,1.694994 -6.202549,2.855491 -3.499603,2.593579 -3.718948,2.997807 -3.44732,4.006826 z"
         id="path19" /><path
         style="display:inline;fill:#1c1c1c;fill-opacity:1;fill-rule:nonzero;stroke:none;stroke-width:1;paint-order:markers stroke fill"
         d="m 135.46507,92.355553 c -2.77694,-4.327146 -3.07685,-3.629428 -4.39801,-5.235231 -0.20227,-0.245854 -0.15397,-0.77406 -0.0776,-1.09504 0.82099,-3.451078 0.72575,-5.012643 -0.81144,-9.562904 -0.13496,-0.399516 0.0386,-0.640123 0.3556,-0.43475 1.48717,0.963492 5.13966,3.766893 5.99434,4.779307 1.73057,2.049957 2.54086,5.968434 2.5257,6.524082 -0.0939,2.003003 -1.57289,3.478432 -2.65392,5.041754 -0.26702,0.387328 -0.80751,0.180913 -0.93466,-0.01722 -0.12715,-0.198132 -1e-5,2e-6 -1e-5,2e-6 z"
         id="path20" /><path
         id="path21"
         style="fill:#1c1c1c;fill-opacity:1;stroke:none;stroke-width:1;paint-order:markers stroke fill"
         d="m 88.376516,80.89015 c -1.773625,0.897044 -6.247743,3.672507 -9.612333,10.12858 -4.290059,8.231894 -4.28966,17.21187 -4.28966,17.21187 -0.104649,4.62673 -2.987489,3.26312 -4.492232,0.54622 -1.153921,-2.08347 -1.636612,-4.02029 -1.940967,-6.23063 -0.159526,-1.15853 -0.430379,-1.17417 -0.61495,-0.0191 -0.403698,2.52638 -0.948316,6.90602 -0.619083,10.61538 0.496093,5.58931 2.282033,10.64948 5.192448,13.95677 2.910413,3.30728 6.945317,7.20989 12.104687,10.31875 5.15937,3.10884 9.888804,6.28385 11.873177,7.37526 1.984373,1.0914 8.493017,4.74596 8.493017,4.74596 0,0 6.50917,-3.65456 8.49354,-4.74596 1.98438,-1.09141 6.71381,-4.26642 11.87318,-7.37526 5.15937,-3.10886 9.19427,-7.01147 12.10469,-10.31875 2.91041,-3.30729 4.69635,-8.36746 5.19244,-13.95677 0.32924,-3.70936 -0.21538,-8.089 -0.61908,-10.61538 -0.18457,-1.15505 -0.45594,-1.13941 -0.61547,0.0191 -0.30435,2.21034 -0.78652,4.14716 -1.94045,6.23063 -1.50474,2.7169 -4.38758,4.08051 -4.49223,-0.54622 0,0 4e-4,-8.979976 -4.28966,-17.21187 -3.36459,-6.456073 -7.83871,-9.231536 -9.61233,-10.12858 -0.41776,-0.211292 -0.62201,-0.0027 -0.4377,0.427881 0.61864,1.43932 0.54972,1.471221 0.72654,1.905826 0.15317,0.376189 0.71015,0.788148 0.99477,1.085206 1.08447,1.131862 2.50825,3.461528 3.93206,5.867858 1.6838,2.845719 1.87069,11.131619 1.87069,11.131619 0,0 3.5572,10.50272 0.37414,19.36368 -3.18306,8.86096 -10.34862,11.84938 -12.58942,12.81679 -2.2408,0.96741 -3.29983,5.78827 -5.82135,6.63318 -2.03593,0.6822 -3.51585,0.73832 -5.14439,0.7519 -1.62854,0.0136 -3.00785,0.0673 -5.143868,-0.7519 -2.985535,-1.14506 -3.664031,-5.70182 -5.82135,-6.63318 -2.157319,-0.93136 -9.406351,-3.95583 -12.589412,-12.81679 -3.183061,-8.86096 0.374137,-19.36368 0.374137,-19.36368 0,0 0.186892,-8.2859 1.870687,-11.131619 1.423813,-2.40633 2.847589,-4.735996 3.93206,-5.867858 0.284619,-0.297058 0.841603,-0.709017 0.994771,-1.085206 0.13964,-0.342979 0.129115,-0.516266 0.726567,-1.905826 0.111193,-0.182892 0.03421,-0.666528 -0.437666,-0.427881 z" /><path
         style="fill:#1c1c1c;fill-opacity:1;fill-rule:nonzero;stroke:none;stroke-width:1;paint-order:markers stroke fill"
         d="m 123.12173,74.478617 c 0,0 0.24845,-0.862943 0.35076,-1.246155 0.10231,-0.383212 0.34359,-0.433259 0.88846,-0.143781 0.54487,0.289478 1.19556,0.937676 1.64796,1.509503 0.4524,0.571827 0.354,0.627465 0.33318,1.058614 -0.0208,0.431149 -0.11097,1.254424 -0.17304,1.453874 -0.0621,0.19945 -0.22352,0.467332 -0.44338,0.526325 -0.21985,0.05899 -0.42108,-0.08081 -0.6345,-0.268952 -0.21342,-0.188141 -1.60243,-1.783723 -1.7675,-2.003988 -0.16507,-0.220265 -0.30988,-0.443816 -0.2019,-0.885438 0.10798,-0.441622 -4e-5,-2e-6 -4e-5,-2e-6 z"
         id="path22" /><path
         style="fill:#1c1c1c;fill-opacity:1;fill-rule:nonzero;stroke:none;stroke-width:1;paint-order:markers stroke fill"
         d="m 113.75856,58.55711 c 0.0737,-0.552656 0.27004,-0.970137 0.3028,-1.087834 0.0328,-0.117696 0.29471,-0.369503 0.79324,-0.169443 0.49853,0.20006 1.32286,1.000415 1.60489,1.202218 0.28203,0.201803 0.30561,0.509228 0.21994,0.713603 -0.0857,0.204375 -0.27023,0.55912 -0.30465,0.779733 -0.0344,0.220613 -0.14848,0.575342 -0.55231,0.459901 -0.40384,-0.115441 -1.16245,-0.437715 -1.54909,-0.719765 -0.38665,-0.28205 -0.58856,-0.625757 -0.51482,-1.178413 z"
         id="path23" /><circle
         style="display:inline;fill:#1c1c1c;fill-opacity:1;stroke:none;stroke-width:1;paint-order:markers stroke fill"
         id="circle23"
         cx="93.924728"
         cy="110.94027"
         r="4.5640626" /><circle
         style="display:inline;fill:#1c1c1c;fill-opacity:1;stroke:none;stroke-width:1;paint-order:markers stroke fill"
         id="circle24"
         cx="115.01694"
         cy="110.94027"
         r="4.5640626" /><circle
         style="display:inline;fill:#1c1c1c;fill-opacity:1;stroke:none;stroke-width:1;paint-order:markers stroke fill"
         id="circle25"
         cx="93.924728"
         cy="110.94027"
         r="4.5640626" /></g><g
       id="g17"
       style="display:none"
       transform="translate(-1.7106397e-5,-11.654109)"><path
         id="path9"
         style="display:inline;fill:#f6f1ee;fill-opacity:1;stroke:none;stroke-width:1.05935;paint-order:markers stroke fill"
         d="m 104.7936,51.093521 c -0.0444,-6.67e-4 -0.0938,0.0033 -0.14728,0.01189 -1.12017,0.179394 -3.1899,0.52817 -4.39508,0.838708 -1.32164,0.340552 -3.643742,1.160767 -4.634339,1.517221 -0.259359,0.09333 -0.467386,0.393513 -0.456303,0.668693 0.227635,5.65184 3.205226,9.699804 3.459221,9.994738 1.602211,1.860458 2.903151,3.361499 2.348181,4.386812 -0.5061,0.935022 -7.950521,4.652438 -10.42159,5.867342 -0.436114,0.214417 -0.604908,0.733638 -0.379822,1.16427 0.377593,0.72241 1.080049,2.077166 2.354378,4.562513 0.898033,1.751446 1.805265,4.440148 -0.526583,5.246708 h 0.0047 c -3.598866,1.105195 -7.499247,4.749916 -7.616072,7.546826 -0.116825,2.79691 0,7.715288 0,7.715288 5.9e-5,1.2446 1.009017,2.25356 2.253609,2.25361 0.785001,-0.007 2.600543,-0.73985 5.67924,-0.57309 3.078697,0.16676 3.994809,0.93142 6.15518,3.0918 3.4566,3.45655 4.91356,8.18431 1.58182,11.51609 -3.331766,3.33178 -9.284729,2.87358 -12.291244,-0.22583 -3.006515,-3.09939 -3.011737,-6.39213 -2.912484,-10.00662 0.01347,-0.41229 -0.190155,-0.43152 -0.599446,-0.57929 -0.409293,-0.14777 -0.971611,-0.61295 -1.244369,-0.96377 -0.272758,-0.35082 -0.391878,-0.23591 -0.461987,0.0842 -0.328282,1.49951 -0.502229,3.02912 -0.518315,4.5651 3.1e-5,9.50283 5.907906,17.62156 14.24926,20.89588 0.422576,0.16588 0.937168,0.61447 1.144116,1.01854 0.574034,1.12085 1.15614,2.23745 1.737878,3.35432 0.270481,0.51943 0.788823,0.8635 1.372531,0.91106 0,0 2.62351,0.13848 3.94187,0.13849 1.31838,1e-5 3.9424,-0.13849 3.9424,-0.13849 0.5837,-0.0476 1.10205,-0.39163 1.37253,-0.91106 0.59698,-1.13691 1.18479,-2.27846 1.77095,-3.42098 0.18859,-0.36759 0.65828,-0.77531 1.04334,-0.92501 8.37732,-3.25675 14.31693,-11.394 14.31696,-20.92275 -10e-4,-1.5194 -0.15733,-3.03391 -0.46457,-4.52065 -0.0789,-0.3816 -0.2493,-0.46674 -0.54002,-0.0997 -0.29072,0.36696 -0.79252,0.7993 -1.22008,0.93483 -0.42756,0.13553 -0.56307,0.1863 -0.59945,0.57929 0.0993,3.61449 0.0941,6.90723 -2.91248,10.00662 -3.00653,3.09941 -8.95947,3.5576 -12.29124,0.22583 -3.33178,-3.33177 -1.87475,-8.05954 1.58181,-11.51609 2.16038,-2.16038 3.07705,-2.92508 6.15518,-3.0918 3.07815,-0.16672 4.89677,0.56683 5.67924,0.57309 1.04054,-4e-5 2.03753,-0.78951 2.1668,-1.6676 0.13961,-0.94835 -7e-5,-8.487563 -0.19431,-9.75754 -0.19424,-1.269977 -3.19722,-3.434223 -5.91798,-4.504118 -3.32911,-1.158616 -3.62556,-3.05991 -2.98535,-6.404777 0.57383,-2.378783 2.79585,-6.867435 3.60547,-8.460465 0.16281,-0.320357 0.13425,-0.81961 -0.0827,-1.105359 -0.57939,-0.763259 -1.84537,-2.295455 -3.95841,-4.19716 -2.88619,-2.597531 -6.26533,-4.712574 -8.43618,-6.93446 -3.32017,-3.398242 -2.19492,-6.776062 -1.48156,-8.177279 0.17204,-0.337937 0.0838,-0.561182 -0.22738,-0.565857 z m -0.38654,68.795799 h 0.12816 c 0.48274,0 0.87126,0.38853 0.87126,0.87127 v 6.05389 c 0,0.0121 -0.002,0.0238 -0.002,0.0357 a 0.93544334,2.525697 0 0 1 0.002,0.14159 0.93544334,2.525697 0 0 1 -0.93534,2.52543 0.93544334,2.525697 0 0 1 -0.93586,-2.52543 0.93544334,2.525697 0 0 1 0.003,-0.12196 c -0.001,-0.0184 -0.003,-0.0366 -0.003,-0.0553 v -6.05389 c 0,-0.48274 0.38903,-0.87127 0.87178,-0.87127 z m -4.752679,1.81901 h 0.128157 c 0.482742,0 0.871262,0.38853 0.871262,0.87127 v 6.05389 c 0,0.012 -0.002,0.0237 -0.002,0.0357 a 0.93544334,2.525697 0 0 1 0.002,0.14159 0.93544334,2.525697 0 0 1 -0.93534,2.52543 0.93544334,2.525697 0 0 1 -0.93586,-2.52543 0.93544334,2.525697 0 0 1 0.0031,-0.12196 c -0.0011,-0.0184 -0.0031,-0.0366 -0.0031,-0.0553 v -6.05389 c 0,-0.48274 0.389042,-0.87127 0.871781,-0.87127 z m 9.505359,0 h 0.12816 c 0.48274,0 0.87127,0.38853 0.87127,0.87127 v 6.05389 c 0,0.0121 -0.002,0.0238 -0.002,0.0357 a 0.93544334,2.525697 0 0 1 0.002,0.14159 0.93544334,2.525697 0 0 1 -0.93535,2.52543 0.93544334,2.525697 0 0 1 -0.93586,-2.52543 0.93544334,2.525697 0 0 1 0.003,-0.12196 c -0.001,-0.0184 -0.003,-0.0366 -0.003,-0.0553 v -6.05389 c 0,-0.48274 0.38904,-0.87127 0.87178,-0.87127 z" /><path
         style="fill:#f6f1ee;fill-opacity:1;fill-rule:nonzero;stroke:none;stroke-width:1;paint-order:markers stroke fill"
         d="m 69.282057,82.213692 c 0.253293,0.940907 2.697311,3.737421 2.795193,3.875181 0.09788,0.137759 0.575997,0.343742 0.855335,0.153468 0,0 5.376759,-3.854758 5.99008,-4.0802 0.613321,-0.225442 0.08069,-1.296112 0.270432,-3.762793 0.06777,-0.881036 0.374854,-2.468466 0.539641,-3.279667 0.05695,-0.280354 -0.11426,-0.429893 -0.383875,-0.331234 -3.416219,1.250086 -4.987442,2.092557 -6.55334,3.253054 -3.499603,2.593579 -3.785094,3.163172 -3.513466,4.172191 z"
         id="path10" /><path
         style="fill:#f6f1ee;fill-opacity:1;fill-rule:nonzero;stroke:none;stroke-width:1;paint-order:markers stroke fill"
         d="m 78.866339,65.327277 c 0.253293,0.940907 1.314898,3.024632 2.189992,3.129319 0.437547,0.05234 1.536839,-0.732024 2.676495,-1.276787 1.139656,-0.544763 2.284757,-0.826136 2.38951,-0.89749 0.104753,-0.07135 1.150039,-0.875383 1.414919,-1.662578 0.26488,-0.787195 -0.09553,-1.108335 0.444997,-3.294383 0.540533,-2.186048 0.753044,-1.717963 0.917831,-2.529164 0.05695,-0.280354 -0.11426,-0.429893 -0.383875,-0.331234 -3.416219,1.250086 -4.636651,1.694994 -6.202549,2.855491 -3.499603,2.593579 -3.718948,2.997807 -3.44732,4.006826 z"
         id="path11" /><path
         style="display:inline;fill:#f6f1ee;fill-opacity:1;fill-rule:nonzero;stroke:none;stroke-width:1;paint-order:markers stroke fill"
         d="m 135.46507,92.355553 c -2.77694,-4.327146 -3.07685,-3.629428 -4.39801,-5.235231 -0.20227,-0.245854 -0.15397,-0.77406 -0.0776,-1.09504 0.82099,-3.451078 0.72575,-5.012643 -0.81144,-9.562904 -0.13496,-0.399516 0.0386,-0.640123 0.3556,-0.43475 1.48717,0.963492 5.13966,3.766893 5.99434,4.779307 1.73057,2.049957 2.54086,5.968434 2.5257,6.524082 -0.0939,2.003003 -1.57289,3.478432 -2.65392,5.041754 -0.26702,0.387328 -0.80751,0.180913 -0.93466,-0.01722 -0.12715,-0.198132 -1e-5,2e-6 -1e-5,2e-6 z"
         id="path12" /><path
         id="path13"
         style="fill:#f6f1ee;fill-opacity:1;stroke:none;stroke-width:1;paint-order:markers stroke fill"
         d="m 88.376516,80.89015 c -1.773625,0.897044 -6.247743,3.672507 -9.612333,10.12858 -4.290059,8.231894 -4.28966,17.21187 -4.28966,17.21187 -0.104649,4.62673 -2.987489,3.26312 -4.492232,0.54622 -1.153921,-2.08347 -1.636612,-4.02029 -1.940967,-6.23063 -0.159526,-1.15853 -0.430379,-1.17417 -0.61495,-0.0191 -0.403698,2.52638 -0.948316,6.90602 -0.619083,10.61538 0.496093,5.58931 2.282033,10.64948 5.192448,13.95677 2.910413,3.30728 6.945317,7.20989 12.104687,10.31875 5.15937,3.10884 9.888804,6.28385 11.873177,7.37526 1.984373,1.0914 8.493017,4.74596 8.493017,4.74596 0,0 6.50917,-3.65456 8.49354,-4.74596 1.98438,-1.09141 6.71381,-4.26642 11.87318,-7.37526 5.15937,-3.10886 9.19427,-7.01147 12.10469,-10.31875 2.91041,-3.30729 4.69635,-8.36746 5.19244,-13.95677 0.32924,-3.70936 -0.21538,-8.089 -0.61908,-10.61538 -0.18457,-1.15505 -0.45594,-1.13941 -0.61547,0.0191 -0.30435,2.21034 -0.78652,4.14716 -1.94045,6.23063 -1.50474,2.7169 -4.38758,4.08051 -4.49223,-0.54622 0,0 4e-4,-8.979976 -4.28966,-17.21187 -3.36459,-6.456073 -7.83871,-9.231536 -9.61233,-10.12858 -0.41776,-0.211292 -0.62201,-0.0027 -0.4377,0.427881 0.61864,1.43932 0.54972,1.471221 0.72654,1.905826 0.15317,0.376189 0.71015,0.788148 0.99477,1.085206 1.08447,1.131862 2.50825,3.461528 3.93206,5.867858 1.6838,2.845719 1.87069,11.131619 1.87069,11.131619 0,0 3.5572,10.50272 0.37414,19.36368 -3.18306,8.86096 -10.34862,11.84938 -12.58942,12.81679 -2.2408,0.96741 -3.29983,5.78827 -5.82135,6.63318 -2.03593,0.6822 -3.51585,0.73832 -5.14439,0.7519 -1.62854,0.0136 -3.00785,0.0673 -5.143868,-0.7519 -2.985535,-1.14506 -3.664031,-5.70182 -5.82135,-6.63318 -2.157319,-0.93136 -9.406351,-3.95583 -12.589412,-12.81679 -3.183061,-8.86096 0.374137,-19.36368 0.374137,-19.36368 0,0 0.186892,-8.2859 1.870687,-11.131619 1.423813,-2.40633 2.847589,-4.735996 3.93206,-5.867858 0.284619,-0.297058 0.841603,-0.709017 0.994771,-1.085206 0.13964,-0.342979 0.129115,-0.516266 0.726567,-1.905826 0.111193,-0.182892 0.03421,-0.666528 -0.437666,-0.427881 z" /><path
         style="fill:#f6f1ee;fill-opacity:1;fill-rule:nonzero;stroke:none;stroke-width:1;paint-order:markers stroke fill"
         d="m 123.12173,74.478617 c 0,0 0.24845,-0.862943 0.35076,-1.246155 0.10231,-0.383212 0.34359,-0.433259 0.88846,-0.143781 0.54487,0.289478 1.19556,0.937676 1.64796,1.509503 0.4524,0.571827 0.354,0.627465 0.33318,1.058614 -0.0208,0.431149 -0.11097,1.254424 -0.17304,1.453874 -0.0621,0.19945 -0.22352,0.467332 -0.44338,0.526325 -0.21985,0.05899 -0.42108,-0.08081 -0.6345,-0.268952 -0.21342,-0.188141 -1.60243,-1.783723 -1.7675,-2.003988 -0.16507,-0.220265 -0.30988,-0.443816 -0.2019,-0.885438 0.10798,-0.441622 -4e-5,-2e-6 -4e-5,-2e-6 z"
         id="path14" /><path
         style="fill:#f6f1ee;fill-opacity:1;fill-rule:nonzero;stroke:none;stroke-width:1;paint-order:markers stroke fill"
         d="m 113.75856,58.55711 c 0.0737,-0.552656 0.27004,-0.970137 0.3028,-1.087834 0.0328,-0.117696 0.29471,-0.369503 0.79324,-0.169443 0.49853,0.20006 1.32286,1.000415 1.60489,1.202218 0.28203,0.201803 0.30561,0.509228 0.21994,0.713603 -0.0857,0.204375 -0.27023,0.55912 -0.30465,0.779733 -0.0344,0.220613 -0.14848,0.575342 -0.55231,0.459901 -0.40384,-0.115441 -1.16245,-0.437715 -1.54909,-0.719765 -0.38665,-0.28205 -0.58856,-0.625757 -0.51482,-1.178413 z"
         id="path15" /><circle
         style="display:inline;fill:#f6f1ee;fill-opacity:1;stroke:none;stroke-width:1;paint-order:markers stroke fill"
         id="circle15"
         cx="93.924728"
         cy="110.94027"
         r="4.5640626" /><circle
         style="display:inline;fill:#f6f1ee;fill-opacity:1;stroke:none;stroke-width:1;paint-order:markers stroke fill"
         id="circle16"
         cx="115.01694"
         cy="110.94027"
         r="4.5640626" /><circle
         style="display:inline;fill:#f6f1ee;fill-opacity:1;stroke:none;stroke-width:1;paint-order:markers stroke fill"
         id="circle17"
         cx="93.924728"
         cy="110.94027"
         r="4.5640626" /></g><g
       id="layer4"
       style="display:none"
       transform="translate(-1.7106397e-5,-11.654109)"><path
         id="rect49"
         style="display:none;fill:#d0d0d0;fill-opacity:0.6;stroke-width:1.01119;paint-order:markers stroke fill"
         d="M 45.467256,156.23645 H 163.47441 v 32.75287 c 0,0 -39.33668,-3.77119 -59.04466,-3.77031 -19.707963,8.7e-4 -58.962494,3.77031 -58.962494,3.77031 z" /><g
         id="g66"
         style="fill:#f6f1ee;fill-opacity:1"><path
           id="rect42"
           style="fill:#f6f1ee;fill-opacity:1;stroke-width:0.995748;paint-order:markers stroke fill"
           d="m 46.188246,156.23645 h 9.207499 a 0.59293097,0.59293097 44.794744 0 1 0.592916,0.58868 l 0.03287,4.58774 a 0.56169535,0.56169535 134.28122 0 1 -0.551613,0.56563 l -4.944495,0.0886 a 0.44380321,0.44380321 134.21645 0 0 -0.435828,0.44792 l 0.0614,6.51362 a 0.49039981,0.49039981 44.505423 0 0 0.494222,0.48576 l 3.390379,-0.0266 a 0.37803283,0.37803283 45.723621 0 1 0.380789,0.39053 l -0.04089,1.23501 a 0.7031067,0.7031067 109.68883 0 1 -0.14477,0.40458 l -2.219612,2.89461 a 0.46813475,0.46813475 151.8979 0 1 -0.341397,0.1823 l -1.139079,0.0734 a 0.3618479,0.3618479 133.04261 0 0 -0.338585,0.36255 l 0.05214,13.03151 a 0.5311727,0.5311727 132.25163 0 1 -0.482404,0.53105 l -3.774878,0.34803 a 0.47596345,0.47596345 42.366258 0 1 -0.51966,-0.47395 l 8e-6,-31.51002 a 0.72098972,0.72098972 135.00001 0 1 0.72099,-0.72099 z" /><path
           id="rect43"
           style="fill:#f6f1ee;fill-opacity:1;paint-order:markers stroke fill"
           d="m 59.53125,156.23645 h 3.505725 a 0.40516405,0.40516405 44.998622 0 1 0.405164,0.40514 l 0.0015,30.38049 a 0.43958096,0.43958096 132.6628 0 1 -0.40378,0.43814 l -3.540342,0.2893 a 0.37302673,0.37302673 42.691804 0 1 -0.403408,-0.37214 l 0.02964,-30.73579 a 0.40553551,0.40553551 135.02763 0 1 0.405536,-0.40514 z" /><path
           id="rect44"
           style="fill:#f6f1ee;fill-opacity:1;paint-order:markers stroke fill"
           d="m 66.703976,156.76842 -0.114628,30.06041 a 0.32375436,0.32375436 42.944963 0 0 0.348187,0.32406 l 3.738034,-0.28293 a 0.37934786,0.37934786 132.93297 0 0 0.350714,-0.37698 l 0.04071,-11.99291 a 0.15256936,0.15256936 134.70529 0 1 0.150481,-0.15204 l 0.15692,-0.002 a 0.27992173,0.27992173 35.396288 0 1 0.269404,0.19143 l 3.861961,11.59359 a 0.5218364,0.5218364 33.865197 0 0 0.530094,0.35575 l 3.064311,-0.20601 a 0.27332575,0.27332575 124.7638 0 0 0.243564,-0.35092 l -3.373394,-11.29687 a 0.38439342,0.38439342 110.91523 0 1 0.16723,-0.43759 l 2.040616,-1.25261 a 1.1215453,1.1215453 119.08562 0 0 0.534804,-0.96142 l -0.06316,-12.67403 a 1.1260975,1.1260975 66.340491 0 0 -0.358568,-0.81841 l -2.024827,-1.88597 a 1.365791,1.365791 21.483252 0 0 -0.930883,-0.36637 h -8.097572 a 0.53400306,0.53400306 135.10924 0 0 -0.534,0.53197 z m 4.497765,5.09043 h 1.546168 a 2.0299554,2.0299554 45 0 1 2.029955,2.02996 v 4.14883 a 1.6264156,1.6264156 135 0 1 -1.626416,1.62642 l -1.883544,0 a 0.3595715,0.3595715 45 0 1 -0.359572,-0.35957 v -7.15223 a 0.29340887,0.29340887 135 0 1 0.293409,-0.29341 z" /><path
           id="rect50"
           style="fill:#f6f1ee;fill-opacity:1;paint-order:markers stroke fill"
           d="m 82.878783,156.2366 h 8.08143 a 0.53811297,0.53811297 44.730338 0 1 0.538089,0.53305 l 0.04266,4.5314 a 0.61285023,0.61285023 134.79859 0 1 -0.614283,0.61861 l -4.465617,-0.0106 a 0.41534328,0.41534328 135.33358 0 0 -0.416315,0.4115 l -0.05203,5.61725 a 0.42276753,0.42276753 45.833808 0 0 0.414361,0.4266 l 3.621211,0.0719 a 0.33973083,0.33973083 46.516501 0 1 0.332804,0.3509 l -0.03249,0.98146 a 0.7802259,0.7802259 108.91091 0 1 -0.14799,0.43197 l -2.13384,2.945 a 0.71916406,0.71916406 152.11124 0 1 -0.560986,0.29688 l -1.165669,0.0347 a 0.40264043,0.40264043 133.40088 0 0 -0.390536,0.41296 l 0.164026,6.28514 a 0.39451063,0.39451063 44.063508 0 0 0.39698,0.38421 l 4.742886,-0.0313 a 0.3899533,0.3899533 44.393101 0 1 0.392485,0.38426 l 0.06239,4.27658 a 0.39263321,0.39263321 133.01685 0 1 -0.371149,0.39777 l -8.806441,0.48165 a 0.63489615,0.63489615 43.513648 0 1 -0.669567,-0.6357 l 0.07779,-28.23893 a 0.95980724,0.95980724 135.07892 0 1 0.959804,-0.95716 z" /><rect
           style="fill:#f6f1ee;fill-opacity:1;stroke:none;stroke-width:1;paint-order:markers stroke fill"
           id="rect51"
           width="5.4901042"
           height="3.4065104"
           x="93.596352"
           y="171.41693"
           ry="0.51449382" /><path
           id="rect52"
           style="fill:#f6f1ee;fill-opacity:1;paint-order:markers stroke fill"
           d="m 100.59208,156.56449 -0.0302,4.30532 a 0.28921151,0.28921151 44.087673 0 0 0.30044,0.29102 l 0.60714,-0.0236 a 0.23847167,0.23847167 43.900412 0 1 0.24773,0.2384 l -0.011,23.24035 a 0.62930571,0.62930571 45.253778 0 0 0.62402,0.62959 l 7.46698,0.0626 a 1.6321269,1.6321269 156.64355 0 0 1.21109,-0.52299 l 2.15507,-2.32673 a 1.785147,1.785147 111.39581 0 0 0.47548,-1.21352 l -0.006,-21.80025 a 0.8657338,0.8657338 65.091821 0 0 -0.30696,-0.66103 l -2.75215,-2.32564 a 0.93824225,0.93824225 20.099208 0 0 -0.60559,-0.2216 l -9.04604,4e-5 a 0.33034869,0.33034869 135.20069 0 0 -0.33034,0.32803 z m 5.58635,5.314 2.24653,0 a 1.5693616,1.5693616 45 0 1 1.56936,1.56936 v 14.59405 a 1.8453122,1.8453122 135 0 1 -1.84531,1.84531 l -1.63772,0 a 0.70172609,0.70172609 45 0 1 -0.70173,-0.70173 v -16.93812 a 0.36886663,0.36886663 135 0 1 0.36887,-0.36887 z" /><path
           id="path55"
           style="fill:#f6f1ee;fill-opacity:1;paint-order:markers stroke fill"
           d="m 66.705298,157.04663 -0.03776,28.40905 a 0.3674353,0.3674353 46.425479 0 0 0.349647,0.36749 l 3.599568,0.17446 a 0.33622264,0.33622264 136.5818 0 0 0.352492,-0.33355 l 0.07385,-10.88339 a 0.15308773,0.15308773 134.80244 0 1 0.15099,-0.15203 l 0.15692,-0.002 a 0.27181495,0.27181495 36.202099 0 1 0.263916,0.19317 l 3.334905,11.03746 a 0.57998504,0.57998504 38.36246 0 0 0.519417,0.41113 l 3.580868,0.22133 a 0.23929366,0.23929366 128.49579 0 0 0.244148,-0.30699 L 75.94655,174.9136 a 0.38495686,0.38495686 110.95577 0 1 0.167631,-0.43771 l 2.040616,-1.25261 a 1.1238599,1.1238599 119.13608 0 0 0.535916,-0.96142 l -0.04174,-12.95465 a 1.1717081,1.1717081 67.258593 0 0 -0.347503,-0.82905 l -1.601974,-1.58539 a 1.3073449,1.3073449 22.350892 0 0 -0.919608,-0.37811 h -8.541914 a 0.53267813,0.53267813 135.03807 0 0 -0.532678,0.53197 z m 4.540378,4.81222 h 1.545966 a 1.9862221,1.9862221 45 0 1 1.986222,1.98622 l 0,4.39024 a 1.4287501,1.4287501 135 0 1 -1.42875,1.42875 l -1.924844,0 a 0.51593767,0.51593767 45 0 1 -0.515938,-0.51594 v -6.95193 a 0.33734383,0.33734383 135 0 1 0.337344,-0.33734 z"
           transform="translate(49.672041,-0.27820255)" /><path
           id="rect57"
           style="fill:#f6f1ee;fill-opacity:1;paint-order:markers stroke fill"
           d="m 132.8729,156.7927 -1.62342,1.40106 a 1.8595206,1.8595206 114.60482 0 0 -0.6446,1.4076 l -0.002,23.06269 a 2.5248146,2.5248146 71.370618 0 0 0.51541,1.52893 l 1.22885,1.61522 a 1.8847281,1.8847281 28.427132 0 0 1.36465,0.7387 l 4.81237,0.34645 a 1.558044,1.558044 155.46412 0 0 1.35928,-0.62049 l 1.31452,-1.75647 a 2.5287769,2.5287769 108.20376 0 0 0.50412,-1.53296 l -0.16217,-23.0524 a 2.4183377,2.4183377 70.202594 0 0 -0.54398,-1.51118 l -1.24222,-1.52355 a 1.7926325,1.7926325 25.404126 0 0 -1.38935,-0.65984 l -3.99571,0 a 2.2895523,2.2895523 159.60251 0 0 -1.49589,0.55624 z m 5.28991,6.09122 -0.0422,17.15024 a 0.89565128,0.89565128 137.53799 0 1 -0.9727,0.89013 l -1.8478,-0.15955 a 1.0629491,1.0629491 47.431962 0 1 -0.97151,-1.05769 l -0.0208,-16.76112 a 0.98846101,0.98846101 134.50413 0 1 0.97257,-0.98956 l 1.91104,-0.0307 a 0.95602899,0.95602899 44.610153 0 1 0.97138,0.95826 z" /><path
           id="path58"
           style="fill:#f6f1ee;fill-opacity:1;paint-order:markers stroke fill"
           d="m 59.484478,156.66315 h 3.505725 a 0.40508921,0.40508921 45.003915 0 1 0.40509,0.40514 l -0.0042,30.6551 a 0.37374929,0.37374929 137.31603 0 1 -0.403881,0.37248 l -3.509035,-0.28383 a 0.4391669,0.4391669 47.316694 0 1 -0.403761,-0.4378 l 0.0048,-30.30595 a 0.40520931,0.40520931 135.00458 0 1 0.40521,-0.40514 z"
           transform="translate(85.460415,-0.42669113)" /><path
           id="path60"
           style="fill:#f6f1ee;fill-opacity:1;paint-order:markers stroke fill"
           d="m 101.71693,156.4845 -0.0455,28.43338 a 0.67592899,0.67592899 47.363491 0 0 0.6213,0.6748 l 7.40263,0.60019 a 1.3546814,1.3546814 156.60847 0 0 1.16846,-0.50544 l 2.33852,-2.93134 a 1.9990262,1.9990262 109.28341 0 0 0.43635,-1.24717 l -0.006,-22.06423 a 0.86573042,0.86573042 65.091907 0 0 -0.30695,-0.66103 l -2.75215,-2.32564 a 0.93824147,0.93824147 20.099193 0 0 -0.60559,-0.2216 l -8.00291,4e-5 a 0.2484382,0.2484382 135.04571 0 0 -0.24844,0.24804 z m 4.4615,5.39399 2.24653,0 a 1.5524776,1.5524776 45.309872 0 1 1.55239,1.56927 l -0.16151,14.93071 a 1.9532666,1.9532666 133.99186 0 1 -1.86332,1.93007 l -1.44198,0.0664 a 0.67016197,0.67016197 43.681983 0 1 -0.70098,-0.66946 l 0,-17.45811 a 0.36886663,0.36886663 135 0 1 0.36887,-0.36887 z"
           transform="matrix(1,0,0,1.081254,49.835539,-12.694849)" /></g></g><g
       id="layer5"
       style="display:none"
       transform="translate(-1.7106397e-5,-11.654109)"><g
         id="g67"
         style="display:none;fill:#1a1a1a"><text
           xml:space="preserve"
           style="font-style:normal;font-variant:normal;font-weight:normal;font-stretch:normal;font-size:11.3973px;font-family:'Modern No. 20';-inkscape-font-specification:'Modern No. 20, ';fill:#1a1a1a;fill-opacity:1;stroke:none;stroke-width:1.07692;paint-order:markers stroke fill"
           x="65.219246"
           y="212.51167"
           id="text62"
           transform="scale(1.0769182,0.92857566)"><tspan
             id="tspan62"
             style="font-style:normal;font-variant:normal;font-weight:normal;font-stretch:normal;font-family:'Tw Cen MT Condensed Extra Bold';-inkscape-font-specification:'Tw Cen MT Condensed Extra Bold, ';fill:#1a1a1a;fill-opacity:1;stroke-width:1.07692"
             x="65.219246"
             y="212.51167">GAME</tspan></text><text
           xml:space="preserve"
           style="font-style:normal;font-variant:normal;font-weight:normal;font-stretch:normal;font-size:11.8525px;font-family:'Modern No. 20';-inkscape-font-specification:'Modern No. 20, ';fill:#1a1a1a;fill-opacity:1;stroke:none;stroke-width:1.11992;paint-order:markers stroke fill"
           x="90.802727"
           y="221.13106"
           id="text63"
           transform="scale(1.11992,0.89292094)"><tspan
             id="tspan63"
             style="font-style:normal;font-variant:normal;font-weight:normal;font-stretch:normal;font-family:'Tw Cen MT Condensed Extra Bold';-inkscape-font-specification:'Tw Cen MT Condensed Extra Bold, ';fill:#1a1a1a;fill-opacity:1;stroke-width:1.11992"
             x="90.802727"
             y="221.13106">STUDIO</tspan></text></g><rect
         style="display:none;fill:#f9f9f9;fill-opacity:0.600462;stroke:none;stroke-width:1;paint-order:markers stroke fill"
         id="rect63"
         width="67.914444"
         height="7.5406251"
         x="70.513657"
         y="190.10313"
         ry="0.51449382" /><text
         xml:space="preserve"
         style="font-size:10.0912px;line-height:0;font-family:Bahnschrift;-inkscape-font-specification:Bahnschrift;letter-spacing:0.782935px;display:inline;fill:#1c1c1c;fill-opacity:1;stroke:#1c1c1c;stroke-width:0.370416;stroke-linecap:round;stroke-linejoin:round;stroke-dasharray:none;stroke-dashoffset:344.693;stroke-opacity:1;paint-order:stroke fill markers"
         x="74.543671"
         y="188.91957"
         id="text1"
         transform="scale(0.94927126,1.0534397)"><tspan
           id="tspan1"
           style="font-style:normal;font-variant:normal;font-weight:800;font-stretch:normal;font-size:10.0912px;line-height:0;font-family:'Mukta Vaani';-inkscape-font-specification:'Mukta Vaani Ultra-Bold';letter-spacing:0.782935px;fill:#1c1c1c;fill-opacity:1;stroke:#1c1c1c;stroke-width:0.370416;stroke-dasharray:none;stroke-opacity:1"
           x="74.543671"
           y="188.91957"
           dx="0"
           rotate="0 0 0 0 0 0 0 0 0 0 0 0"
           dy="0">GAME STUDIO</tspan></text></g></g><g
     id="layer1"
     style="display:none"
     transform="translate(-66.220178,-29.235919)"><g
       id="g70"
       style="display:none"><rect
         style="fill:#cc00ff;fill-opacity:0.308492;stroke-width:0.127;paint-order:markers fill stroke"
         id="rect3"
         width="104.99999"
         height="104.99999"
         x="0"
         y="0" /><rect
         style="fill:#282523;fill-opacity:0.308492;stroke-width:0.127;paint-order:markers fill stroke"
         id="rect4"
         width="104.99999"
         height="104.99999"
         x="1.6391277e-06"
         y="104.99999" /><rect
         style="fill:#282523;fill-opacity:0.308492;stroke-width:0.127;paint-order:markers fill stroke"
         id="rect5"
         width="104.99999"
         height="104.99999"
         x="104.99999"
         y="-1.4210855e-14" /><rect
         style="fill:#cc00ff;fill-opacity:0.308492;stroke-width:0.127;paint-order:markers fill stroke"
         id="rect6"
         width="104.99999"
         height="104.99999"
         x="104.99999"
         y="104.99999" /></g><g
       id="g41"
       transform="translate(-0.03902,-180.75184)"
       style="display:inline"><g
         id="g34"
         transform="translate(-9.7629395e-5,-0.18565526)"><path
           style="-inkscape-font-specification:'Mukta Vaani Ultra-Bold';fill:#1c1c1c;stroke-linecap:round;stroke-linejoin:round;stroke-dashoffset:344.693;paint-order:stroke fill markers"
           d="m 105.03906,202.87305 c -0.45743,0 -0.89043,0.0865 -1.29101,0.25976 -0.39391,0.17335 -0.73992,0.42475 -1.03125,0.74805 -0.29172,0.32372 -0.51747,0.71492 -0.67774,1.16601 -0.16161,0.44838 -0.24218,0.94872 -0.24218,1.49805 0,0.56231 0.0759,1.07256 0.23046,1.52735 a 0.18522651,0.18522651 0 0 0 0.002,0.002 c 0.16028,0.44467 0.38213,0.82928 0.66797,1.14648 a 0.18522651,0.18522651 0 0 0 0.002,0.002 c 0.28584,0.30965 0.62791,0.54917 1.02148,0.71484 0.39426,0.16595 0.82287,0.24805 1.2793,0.24805 0.45643,0 0.88504,-0.0821 1.2793,-0.24805 a 0.18522651,0.18522651 0 0 0 0.002,-0.002 c 0.39979,-0.17296 0.74541,-0.41913 1.03125,-0.73633 0.29145,-0.32343 0.51733,-0.70987 0.67773,-1.1543 v -0.002 c 0.16815,-0.44856 0.25,-0.94868 0.25,-1.49805 0,-0.56304 -0.0788,-1.07386 -0.24023,-1.5293 -0.15372,-0.4514 -0.37391,-0.83859 -0.66016,-1.15625 -0.28583,-0.3172 -0.62892,-0.5605 -1.02343,-0.72656 -0.39387,-0.17273 -0.82125,-0.25976 -1.27735,-0.25976 z m 0,0.37109 c 0.41109,0 0.78489,0.0763 1.13086,0.22852 a 0.18522651,0.18522651 0 0 0 0.004,0 c 0.34629,0.14576 0.64197,0.35666 0.89258,0.63476 0.24962,0.27702 0.44398,0.61725 0.58398,1.0293 a 0.18522651,0.18522651 0 0 0 0,0.004 c 0.14507,0.40918 0.2207,0.87594 0.2207,1.4043 0,0.51298 -0.0778,0.96965 -0.22851,1.3711 a 0.18522651,0.18522651 0 0 0 0,0.002 c -0.14609,0.4053 -0.34807,0.74756 -0.60547,1.0332 -0.2506,0.27811 -0.55052,0.49148 -0.9043,0.64453 -0.34607,0.14539 -0.7214,0.21875 -1.13281,0.21875 -0.41209,0 -0.78822,-0.0729 -1.13477,-0.21875 -0.34634,-0.14579 -0.64238,-0.35256 -0.89257,-0.62304 l -0.002,-0.002 c -0.24888,-0.27672 -0.44602,-0.6147 -0.59179,-1.01758 -0.13925,-0.40983 -0.21094,-0.87912 -0.21094,-1.4082 0,-0.51372 0.0738,-0.97099 0.21875,-1.37305 0.1462,-0.41239 0.34855,-0.75785 0.60547,-1.04296 0.25751,-0.28577 0.55607,-0.50363 0.90234,-0.65625 0.35299,-0.15271 0.73345,-0.22852 1.14453,-0.22852 z M 105,204.08398 c -0.23433,0 -0.46168,0.0593 -0.67187,0.17188 -0.20745,0.10743 -0.38548,0.27163 -0.53321,0.48242 -0.14927,0.21297 -0.26276,0.46991 -0.34375,0.76953 -0.082,0.30337 -0.12109,0.6489 -0.12109,1.03711 0,0.38821 0.0391,0.73374 0.12109,1.03711 a 0.18522651,0.18522651 0 0 0 0.002,0.004 c 0.0879,0.30014 0.20763,0.55502 0.36523,0.76172 0.15444,0.20255 0.33507,0.36068 0.54102,0.46679 a 0.18522651,0.18522651 0 0 0 0.002,0.002 c 0.21028,0.1046 0.44,0.15625 0.67773,0.15625 0.23219,0 0.45386,-0.0529 0.65821,-0.15821 0.21229,-0.10613 0.39615,-0.2663 0.54492,-0.4707 0.15082,-0.20723 0.2646,-0.46172 0.3457,-0.76172 0.082,-0.30337 0.12109,-0.6489 0.12109,-1.03711 0,-0.40221 -0.0437,-0.75547 -0.13281,-1.06055 -0.0812,-0.30616 -0.19716,-0.56581 -0.35547,-0.77343 -0.15435,-0.20244 -0.33977,-0.36106 -0.55078,-0.4668 -0.20515,-0.1057 -0.43218,-0.16016 -0.66992,-0.16016 z m 0,0.3711 c 0.18376,0 0.34752,0.0386 0.5,0.11719 a 0.18522651,0.18522651 0 0 0 0.002,0.002 c 0.15784,0.0785 0.29811,0.19644 0.42383,0.36133 0.12188,0.15985 0.221,0.37357 0.29297,0.64648 a 0.18522651,0.18522651 0 0 0 0.002,0.006 c 0.0766,0.26151 0.11719,0.5804 0.11719,0.95703 0,0.36301 -0.0381,0.67782 -0.10937,0.94141 -0.0722,0.26696 -0.16972,0.47933 -0.28711,0.64062 -0.11888,0.16334 -0.25308,0.27928 -0.41016,0.35742 a 0.18522651,0.18522651 0 0 0 -0.004,0 c -0.15327,0.079 -0.31176,0.11915 -0.48828,0.11915 -0.18309,0 -0.35017,-0.0401 -0.50976,-0.11915 h -0.002 c -0.1512,-0.0782 -0.28785,-0.1958 -0.41406,-0.36132 -0.12339,-0.16183 -0.22655,-0.37381 -0.30469,-0.64063 -0.0707,-0.26291 -0.10742,-0.57598 -0.10742,-0.9375 0,-0.36302 0.0362,-0.67587 0.10742,-0.93945 0.0723,-0.26734 0.17011,-0.48458 0.28907,-0.6543 0.11992,-0.17111 0.25318,-0.29034 0.40234,-0.36719 a 0.18522651,0.18522651 0 0 0 0.004,-0.002 c 0.1602,-0.0858 0.3217,-0.12695 0.49609,-0.12695 z"
           id="path33" /><path
           style="-inkscape-font-specification:'Mukta Vaani Ultra-Bold';fill:#1c1c1c;stroke-linecap:round;stroke-linejoin:round;stroke-dashoffset:344.693;paint-order:stroke fill markers"
           d="m 105.03831,203.05828 q 0.65139,0 1.20698,0.2445 0.5556,0.23387 0.95793,0.68035 0.40233,0.44648 0.62266,1.09494 0.2299,0.64846 0.2299,1.46701 0,0.79728 -0.23948,1.43511 -0.2299,0.63782 -0.64181,1.09493 -0.40233,0.44648 -0.96751,0.69099 -0.5556,0.23387 -1.20699,0.23387 -0.65139,0 -1.20699,-0.23387 -0.55559,-0.23387 -0.95792,-0.66972 -0.40233,-0.44648 -0.63224,-1.08431 -0.22032,-0.64846 -0.22032,-1.467 0,-0.79729 0.2299,-1.43511 0.2299,-0.64847 0.64181,-1.10558 0.41191,-0.45711 0.96751,-0.70161 0.56518,-0.2445 1.21657,-0.2445 z m -1.52311,3.4868 q 0,0.56341 0.11496,0.98863 0.12452,0.42522 0.33527,0.70161 0.21074,0.27639 0.47896,0.41459 0.2778,0.13819 0.59392,0.13819 0.30653,0 0.57475,-0.13819 0.27781,-0.1382 0.47897,-0.41459 0.20116,-0.27639 0.31611,-0.70161 0.11496,-0.42522 0.11496,-0.98863 0,-0.58468 -0.12454,-1.0099 -0.11494,-0.43585 -0.32569,-0.71225 -0.21074,-0.27639 -0.48854,-0.41458 -0.26822,-0.1382 -0.58434,-0.1382 -0.30654,0 -0.58434,0.14883 -0.26822,0.13819 -0.46938,0.42522 -0.20117,0.28702 -0.31611,0.71224 -0.11496,0.42521 -0.11496,0.98864 z"
           id="path34" /></g><g
         id="g36"
         transform="translate(-9.7629395e-5,-0.18565526)"><path
           style="-inkscape-font-specification:'Mukta Vaani Ultra-Bold';fill:#1c1c1c;stroke-linecap:round;stroke-linejoin:round;stroke-dashoffset:344.693;paint-order:stroke fill markers"
           d="m 105.03906,195.56055 c -0.45743,0 -0.89043,0.0865 -1.29101,0.25976 -0.39391,0.17335 -0.73992,0.42475 -1.03125,0.74805 -0.29172,0.32372 -0.51747,0.71492 -0.67774,1.16601 -0.16161,0.44838 -0.24218,0.94872 -0.24218,1.49805 0,0.56231 0.0759,1.07256 0.23046,1.52735 a 0.18522651,0.18522651 0 0 0 0.002,0.004 c 0.16028,0.44467 0.38213,0.82733 0.66797,1.14453 a 0.18522651,0.18522651 0 0 0 0.002,0.002 c 0.28584,0.30965 0.62791,0.54917 1.02148,0.71484 0.39426,0.16595 0.82287,0.24805 1.2793,0.24805 0.45643,0 0.88504,-0.0821 1.2793,-0.24805 a 0.18522651,0.18522651 0 0 0 0.002,-0.002 c 0.39979,-0.17296 0.74541,-0.41913 1.03125,-0.73633 0.29145,-0.32343 0.51733,-0.70987 0.67773,-1.1543 v -0.002 c 0.16815,-0.44856 0.25,-0.94868 0.25,-1.49805 0,-0.56304 -0.0788,-1.07386 -0.24023,-1.5293 -0.1537,-0.45066 -0.37428,-0.839 -0.66016,-1.15625 -0.28583,-0.3172 -0.62892,-0.5605 -1.02343,-0.72656 -0.39387,-0.17273 -0.82125,-0.25976 -1.27735,-0.25976 z m 0,0.37109 c 0.41109,0 0.78489,0.0763 1.13086,0.22852 a 0.18522651,0.18522651 0 0 0 0.004,0.002 c 0.34629,0.14576 0.64197,0.35471 0.89258,0.63281 0.24962,0.27702 0.44398,0.6192 0.58398,1.03125 a 0.18522651,0.18522651 0 0 0 0,0.002 c 0.14507,0.40918 0.2207,0.87594 0.2207,1.4043 0,0.51298 -0.0778,0.96965 -0.22851,1.3711 a 0.18522651,0.18522651 0 0 0 0,0.002 c -0.14609,0.4053 -0.34807,0.74756 -0.60547,1.0332 -0.2506,0.27811 -0.55052,0.49148 -0.9043,0.64453 -0.34607,0.14539 -0.7214,0.21875 -1.13281,0.21875 -0.41209,0 -0.78822,-0.0729 -1.13477,-0.21875 -0.34634,-0.14579 -0.64238,-0.35256 -0.89257,-0.62304 l -0.002,-0.002 c -0.24888,-0.27672 -0.44602,-0.6147 -0.59179,-1.01758 -0.13925,-0.40983 -0.21094,-0.87912 -0.21094,-1.4082 0,-0.51372 0.0738,-0.96904 0.21875,-1.37109 a 0.18522651,0.18522651 0 0 0 0,-0.002 c 0.1462,-0.41239 0.34855,-0.75785 0.60547,-1.04296 0.25751,-0.28577 0.55607,-0.50363 0.90234,-0.65625 0.35299,-0.15271 0.73345,-0.22852 1.14453,-0.22852 z M 105,196.77344 c -0.23433,0 -0.46168,0.0573 -0.67187,0.16992 -0.20745,0.10743 -0.38548,0.27163 -0.53321,0.48242 -0.14927,0.21297 -0.26276,0.46991 -0.34375,0.76953 -0.082,0.30337 -0.12109,0.6489 -0.12109,1.03711 0,0.38821 0.0391,0.73374 0.12109,1.03711 a 0.18522651,0.18522651 0 0 0 0.002,0.004 c 0.0879,0.30014 0.20763,0.55502 0.36523,0.76172 0.15444,0.20255 0.33507,0.36068 0.54102,0.46679 a 0.18522651,0.18522651 0 0 0 0.002,0.002 c 0.21028,0.1046 0.44,0.1582 0.67773,0.1582 0.23219,0 0.45386,-0.0549 0.65821,-0.16016 0.21229,-0.10613 0.39615,-0.2663 0.54492,-0.4707 0.15082,-0.20723 0.2646,-0.46172 0.3457,-0.76172 0.082,-0.30337 0.12109,-0.6489 0.12109,-1.03711 0,-0.40293 -0.0434,-0.75509 -0.13281,-1.06055 -0.0812,-0.30616 -0.19716,-0.56581 -0.35547,-0.77343 -0.15435,-0.20244 -0.33977,-0.36106 -0.55078,-0.4668 -0.20515,-0.1057 -0.43218,-0.1582 -0.66992,-0.1582 z m 0,0.36914 c 0.18376,0 0.34752,0.0406 0.5,0.11914 a 0.18522651,0.18522651 0 0 0 0.002,0 c 0.15784,0.0785 0.29811,0.19644 0.42383,0.36133 0.12188,0.15985 0.221,0.37357 0.29297,0.64648 a 0.18522651,0.18522651 0 0 0 0.002,0.006 c 0.0766,0.26151 0.11719,0.5804 0.11719,0.95703 0,0.36301 -0.0381,0.67782 -0.10937,0.94141 -0.0722,0.26696 -0.16972,0.47933 -0.28711,0.64062 -0.11888,0.16334 -0.25308,0.27928 -0.41016,0.35742 a 0.18522651,0.18522651 0 0 0 -0.004,0.002 c -0.15327,0.079 -0.31176,0.11719 -0.48828,0.11719 -0.18376,0 -0.3516,-0.0395 -0.51172,-0.11915 -0.15079,-0.0782 -0.28814,-0.19618 -0.41406,-0.36132 -0.12339,-0.16183 -0.22655,-0.37381 -0.30469,-0.64063 -0.0707,-0.26291 -0.10742,-0.57598 -0.10742,-0.9375 0,-0.36302 0.0362,-0.67587 0.10742,-0.93945 0.0723,-0.26734 0.17011,-0.48458 0.28907,-0.6543 0.11992,-0.17111 0.25318,-0.29034 0.40234,-0.36719 a 0.18522651,0.18522651 0 0 0 0.004,-0.002 c 0.1602,-0.0858 0.3217,-0.12695 0.49609,-0.12695 z"
           id="path35" /><path
           style="-inkscape-font-specification:'Mukta Vaani Ultra-Bold';fill:#1c1c1c;stroke-linecap:round;stroke-linejoin:round;stroke-dashoffset:344.693;paint-order:stroke fill markers"
           d="m 105.03831,195.74616 q 0.65139,0 1.20698,0.2445 0.5556,0.23387 0.95793,0.68035 0.40233,0.44648 0.62266,1.09494 0.2299,0.64846 0.2299,1.46701 0,0.79728 -0.23948,1.43511 -0.2299,0.63782 -0.64181,1.09493 -0.40233,0.44648 -0.96751,0.69099 -0.5556,0.23387 -1.20699,0.23387 -0.65139,0 -1.20699,-0.23387 -0.55559,-0.23387 -0.95792,-0.66972 -0.40233,-0.44648 -0.63224,-1.08431 -0.22032,-0.64846 -0.22032,-1.467 0,-0.79729 0.2299,-1.43511 0.2299,-0.64847 0.64181,-1.10558 0.41191,-0.45711 0.96751,-0.70161 0.56518,-0.2445 1.21657,-0.2445 z m -1.52311,3.4868 q 0,0.56341 0.11496,0.98863 0.12452,0.42522 0.33527,0.70161 0.21074,0.27639 0.47896,0.41459 0.2778,0.13819 0.59392,0.13819 0.30653,0 0.57475,-0.13819 0.27781,-0.1382 0.47897,-0.41459 0.20116,-0.27639 0.31611,-0.70161 0.11496,-0.42522 0.11496,-0.98863 0,-0.58468 -0.12454,-1.0099 -0.11494,-0.43585 -0.32569,-0.71225 -0.21074,-0.27639 -0.48854,-0.41458 -0.26822,-0.1382 -0.58434,-0.1382 -0.30654,0 -0.58434,0.14883 -0.26822,0.13819 -0.46938,0.42522 -0.20117,0.28702 -0.31611,0.71224 -0.11496,0.42521 -0.11496,0.98864 z"
           id="path36" /></g><g
         id="g38"
         transform="translate(-9.7629395e-5,-0.18565526)"><path
           style="-inkscape-font-specification:'Mukta Vaani Ultra-Bold';fill:#1c1c1c;stroke-linecap:round;stroke-linejoin:round;stroke-dashoffset:344.693;paint-order:stroke fill markers"
           d="m 105.03906,188.24805 c -0.45743,0 -0.89043,0.0865 -1.29101,0.25976 a 0.18522651,0.18522651 0 0 0 0,0.002 c -0.39391,0.17334 -0.73992,0.42279 -1.03125,0.74609 -0.29229,0.32437 -0.51936,0.71574 -0.67969,1.16797 h 0.002 c -0.16161,0.44837 -0.24218,0.94676 -0.24218,1.49609 0,0.56231 0.0759,1.07256 0.23046,1.52735 a 0.18522651,0.18522651 0 0 0 0.002,0.004 c 0.16028,0.44467 0.38213,0.82733 0.66797,1.14453 a 0.18522651,0.18522651 0 0 0 0.002,0.002 c 0.28584,0.30965 0.62791,0.54917 1.02148,0.71484 0.39426,0.16595 0.82287,0.24805 1.2793,0.24805 0.45643,0 0.88504,-0.0821 1.2793,-0.24805 a 0.18522651,0.18522651 0 0 0 0.002,0 c 0.39979,-0.17296 0.74541,-0.42108 1.03125,-0.73828 0.29181,-0.32384 0.51729,-0.71112 0.67773,-1.15625 0.16772,-0.44812 0.25,-0.94938 0.25,-1.49805 0,-0.56304 -0.0788,-1.0719 -0.24023,-1.52734 -0.15372,-0.4514 -0.37391,-0.84055 -0.66016,-1.15821 -0.28485,-0.31611 -0.62673,-0.55858 -1.01953,-0.7246 -0.39482,-0.17375 -0.82381,-0.26172 -1.28125,-0.26172 z m 0,0.37109 c 0.41109,0 0.78489,0.0763 1.13086,0.22852 a 0.18522651,0.18522651 0 0 0 0.004,0.002 c 0.34629,0.14576 0.64197,0.35471 0.89258,0.63281 0.24962,0.27702 0.44398,0.6192 0.58398,1.03125 a 0.18522651,0.18522651 0 0 0 0,0.002 c 0.14507,0.40918 0.2207,0.87594 0.2207,1.4043 0,0.51298 -0.0778,0.96965 -0.22851,1.3711 a 0.18522651,0.18522651 0 0 0 0,0.002 c -0.14609,0.4053 -0.34807,0.74756 -0.60547,1.0332 -0.24999,0.27742 -0.5497,0.49156 -0.90234,0.64453 -0.34655,0.14588 -0.72268,0.22071 -1.13477,0.22071 -0.41209,0 -0.78822,-0.0748 -1.13477,-0.22071 -0.34634,-0.14579 -0.64238,-0.35256 -0.89257,-0.62304 l -0.002,-0.002 c -0.24888,-0.27672 -0.44602,-0.6147 -0.59179,-1.01758 -0.13925,-0.40983 -0.21094,-0.87912 -0.21094,-1.4082 0,-0.51372 0.0738,-0.96904 0.21875,-1.37109 a 0.18522651,0.18522651 0 0 0 0,-0.002 c 0.1462,-0.41239 0.34855,-0.75785 0.60547,-1.04296 0.25751,-0.28577 0.55607,-0.50363 0.90234,-0.65625 0.35299,-0.15271 0.73345,-0.22852 1.14453,-0.22852 z M 105,189.46094 c -0.23433,0 -0.46168,0.0573 -0.67187,0.16992 -0.20793,0.10742 -0.38521,0.27125 -0.53321,0.48242 -0.14927,0.21297 -0.26276,0.47186 -0.34375,0.77149 -0.082,0.30336 -0.12109,0.64694 -0.12109,1.03515 0,0.38821 0.0391,0.73374 0.12109,1.03711 a 0.18522651,0.18522651 0 0 0 0.002,0.004 c 0.0879,0.30014 0.20763,0.55502 0.36523,0.76172 0.15444,0.20255 0.33507,0.36068 0.54102,0.46679 a 0.18522651,0.18522651 0 0 0 0.002,0.002 c 0.21028,0.1046 0.44,0.1582 0.67773,0.1582 0.23219,0 0.45386,-0.0549 0.65821,-0.16016 0.21228,-0.10613 0.39615,-0.26435 0.54492,-0.46875 0.15082,-0.20722 0.2646,-0.46367 0.3457,-0.76367 0.082,-0.30337 0.12109,-0.6489 0.12109,-1.03711 0,-0.40293 -0.0434,-0.75509 -0.13281,-1.06055 -0.0812,-0.30616 -0.19716,-0.56581 -0.35547,-0.77343 -0.15526,-0.20363 -0.34212,-0.36106 -0.55468,-0.4668 -0.20425,-0.10454 -0.4296,-0.1582 -0.66602,-0.1582 z m 0,0.37109 c 0.18376,0 0.34752,0.0386 0.5,0.11719 a 0.18522651,0.18522651 0 0 0 0.002,0 c 0.15784,0.0785 0.29811,0.19644 0.42383,0.36133 0.12188,0.15985 0.221,0.37552 0.29297,0.64843 a 0.18522651,0.18522651 0 0 0 0.002,0.004 c 0.0766,0.26151 0.11719,0.5804 0.11719,0.95703 0,0.36301 -0.0381,0.67782 -0.10937,0.94141 -0.0722,0.26696 -0.16972,0.47933 -0.28711,0.64062 -0.11888,0.16334 -0.25308,0.27928 -0.41016,0.35742 a 0.18522651,0.18522651 0 0 0 -0.004,0.002 c -0.15327,0.079 -0.31176,0.11719 -0.48828,0.11719 -0.18376,0 -0.3516,-0.0395 -0.51172,-0.11915 -0.15079,-0.0782 -0.28814,-0.19618 -0.41406,-0.36132 -0.12339,-0.16183 -0.22655,-0.37381 -0.30469,-0.64063 -0.0707,-0.26291 -0.10742,-0.57598 -0.10742,-0.9375 0,-0.36302 0.0362,-0.67587 0.10742,-0.93945 0.0723,-0.26734 0.17011,-0.48458 0.28907,-0.6543 0.11992,-0.17111 0.25318,-0.29034 0.40234,-0.36719 a 0.18522651,0.18522651 0 0 0 0.004,-0.002 c 0.1602,-0.0858 0.3217,-0.125 0.49609,-0.125 z"
           id="path37" /><path
           style="-inkscape-font-specification:'Mukta Vaani Ultra-Bold';fill:#1c1c1c;stroke-linecap:round;stroke-linejoin:round;stroke-dashoffset:344.693;paint-order:stroke fill markers"
           d="m 105.03831,188.43404 q 0.65139,0 1.20698,0.2445 0.5556,0.23387 0.95793,0.68035 0.40233,0.44648 0.62266,1.09494 0.2299,0.64846 0.2299,1.46701 0,0.79728 -0.23948,1.43511 -0.2299,0.63782 -0.64181,1.09493 -0.40233,0.44648 -0.96751,0.69099 -0.5556,0.23387 -1.20699,0.23387 -0.65139,0 -1.20699,-0.23387 -0.55559,-0.23387 -0.95792,-0.66972 -0.40233,-0.44648 -0.63224,-1.08431 -0.22032,-0.64846 -0.22032,-1.467 0,-0.79729 0.2299,-1.43511 0.2299,-0.64847 0.64181,-1.10558 0.41191,-0.45711 0.96751,-0.70161 0.56518,-0.2445 1.21657,-0.2445 z m -1.52311,3.4868 q 0,0.56341 0.11496,0.98863 0.12452,0.42522 0.33527,0.70161 0.21074,0.27639 0.47896,0.41459 0.2778,0.13819 0.59392,0.13819 0.30653,0 0.57475,-0.13819 0.27781,-0.1382 0.47897,-0.41459 0.20116,-0.27639 0.31611,-0.70161 0.11496,-0.42522 0.11496,-0.98863 0,-0.58468 -0.12454,-1.0099 -0.11494,-0.43585 -0.32569,-0.71225 -0.21074,-0.27639 -0.48854,-0.41458 -0.26822,-0.1382 -0.58434,-0.1382 -0.30654,0 -0.58434,0.14883 -0.26822,0.13819 -0.46938,0.42522 -0.20117,0.28702 -0.31611,0.71224 -0.11496,0.42521 -0.11496,0.98864 z"
           id="path38" /></g><g
         id="g40"
         transform="translate(-9.7629395e-5,-0.18565526)"><path
           style="-inkscape-font-specification:'Mukta Vaani Ultra-Bold';fill:#1c1c1c;stroke-linecap:round;stroke-linejoin:round;stroke-dashoffset:344.693;paint-order:stroke fill markers"
           d="m 105.03906,180.9375 c -0.45743,0 -0.89043,0.0865 -1.29101,0.25977 -0.39391,0.17334 -0.73992,0.42279 -1.03125,0.74609 -0.29229,0.32437 -0.51936,0.71574 -0.67969,1.16797 h 0.002 c -0.16161,0.44837 -0.24218,0.94872 -0.24218,1.49804 0,0.56232 0.0759,1.07061 0.23046,1.5254 a 0.18522651,0.18522651 0 0 0 0.002,0.004 c 0.16028,0.44467 0.38213,0.82733 0.66797,1.14453 a 0.18522651,0.18522651 0 0 0 0.002,0.002 c 0.28584,0.30965 0.62791,0.54917 1.02148,0.71484 0.39426,0.16595 0.82287,0.24805 1.2793,0.24805 0.45643,0 0.88504,-0.0821 1.2793,-0.24805 a 0.18522651,0.18522651 0 0 0 0.002,0 c 0.39979,-0.17296 0.74541,-0.41913 1.03125,-0.73633 0.29145,-0.32343 0.51733,-0.70987 0.67773,-1.1543 v -0.002 c 0.16815,-0.44856 0.25,-0.94868 0.25,-1.49805 0,-0.56303 -0.0788,-1.07385 -0.24023,-1.52929 -0.15372,-0.4514 -0.37391,-0.84055 -0.66016,-1.15821 -0.28485,-0.31611 -0.62673,-0.55858 -1.01953,-0.7246 -0.39482,-0.17375 -0.82381,-0.25977 -1.28125,-0.25977 z m 0,0.36914 c 0.41109,0 0.78489,0.0763 1.13086,0.22852 a 0.18522651,0.18522651 0 0 0 0.004,0.002 c 0.34629,0.14576 0.64197,0.35471 0.89258,0.63281 0.24962,0.27702 0.44398,0.6192 0.58398,1.03125 a 0.18522651,0.18522651 0 0 0 0,0.002 c 0.14507,0.40918 0.2207,0.87789 0.2207,1.40625 0,0.51298 -0.0778,0.9677 -0.22851,1.36915 a 0.18522651,0.18522651 0 0 0 0,0.002 c -0.14609,0.4053 -0.34807,0.74951 -0.60547,1.03515 -0.24999,0.27743 -0.5497,0.48961 -0.90234,0.64258 -0.34655,0.14588 -0.72268,0.22071 -1.13477,0.22071 -0.41209,0 -0.78822,-0.0748 -1.13477,-0.22071 -0.34669,-0.14594 -0.64221,-0.35216 -0.89257,-0.62304 -0.25004,-0.27748 -0.44759,-0.61498 -0.59375,-1.01954 -0.13925,-0.40983 -0.21094,-0.87717 -0.21094,-1.40625 0,-0.51372 0.0738,-0.97099 0.21875,-1.37304 0.1462,-0.4124 0.34855,-0.75981 0.60547,-1.04492 0.25725,-0.28548 0.55652,-0.5017 0.90234,-0.6543 0.35299,-0.15271 0.73345,-0.23047 1.14453,-0.23047 z M 105,182.14844 c -0.23433,0 -0.46168,0.0593 -0.67187,0.17187 -0.20745,0.10743 -0.38548,0.26969 -0.53321,0.48047 -0.14927,0.21297 -0.26276,0.47186 -0.34375,0.77149 -0.082,0.30336 -0.12109,0.64889 -0.12109,1.0371 0,0.38821 0.0391,0.73374 0.12109,1.03711 a 0.18522651,0.18522651 0 0 0 0.002,0.002 c 0.0879,0.30014 0.20763,0.55698 0.36523,0.76367 0.15444,0.20255 0.33507,0.36068 0.54102,0.4668 a 0.18522651,0.18522651 0 0 0 0.002,0 c 0.21028,0.1046 0.44,0.1582 0.67773,0.1582 0.23154,0 0.45237,-0.0535 0.65625,-0.1582 0.21333,-0.10613 0.39754,-0.26552 0.54688,-0.47071 0.15082,-0.20722 0.2646,-0.46172 0.3457,-0.76172 0.082,-0.30337 0.12109,-0.6489 0.12109,-1.03711 0,-0.40293 -0.0434,-0.75704 -0.13281,-1.0625 -0.0812,-0.30616 -0.19716,-0.56581 -0.35547,-0.77343 -0.15526,-0.20363 -0.34212,-0.36106 -0.55468,-0.4668 -0.20425,-0.10454 -0.4296,-0.1582 -0.66602,-0.1582 z m 0,0.37109 c 0.18376,0 0.34752,0.0386 0.5,0.11719 a 0.18522651,0.18522651 0 0 0 0.002,0.002 c 0.15784,0.0785 0.29811,0.19449 0.42383,0.35938 0.12188,0.15985 0.221,0.37552 0.29297,0.64843 a 0.18522651,0.18522651 0 0 0 0.002,0.004 c 0.0766,0.26151 0.11719,0.58235 0.11719,0.95898 0,0.36301 -0.0381,0.67587 -0.10937,0.93946 -0.0722,0.26696 -0.16972,0.47933 -0.28711,0.64062 -0.11888,0.16334 -0.25308,0.27928 -0.41016,0.35742 a 0.18522651,0.18522651 0 0 0 -0.004,0.002 c -0.15327,0.079 -0.31176,0.11719 -0.48828,0.11719 -0.18376,0 -0.3516,-0.0395 -0.51172,-0.11915 -0.15079,-0.0782 -0.28814,-0.19423 -0.41406,-0.35937 -0.12339,-0.16183 -0.22655,-0.37576 -0.30469,-0.64258 -0.0707,-0.26291 -0.10742,-0.57403 -0.10742,-0.93555 0,-0.36302 0.0362,-0.67782 0.10742,-0.9414 0.0723,-0.26734 0.17011,-0.48458 0.28907,-0.6543 0.11992,-0.17111 0.25318,-0.29034 0.40234,-0.36719 a 0.18522651,0.18522651 0 0 0 0.004,0 c 0.1602,-0.0858 0.3217,-0.12695 0.49609,-0.12695 z"
           id="path39" /><path
           style="-inkscape-font-specification:'Mukta Vaani Ultra-Bold';fill:#1c1c1c;stroke-linecap:round;stroke-linejoin:round;stroke-dashoffset:344.693;paint-order:stroke fill markers"
           d="m 105.03831,181.12192 q 0.65139,0 1.20698,0.2445 0.5556,0.23387 0.95793,0.68035 0.40233,0.44648 0.62266,1.09494 0.2299,0.64846 0.2299,1.46701 0,0.79728 -0.23948,1.43511 -0.2299,0.63782 -0.64181,1.09493 -0.40233,0.44648 -0.96751,0.69099 -0.5556,0.23387 -1.20699,0.23387 -0.65139,0 -1.20699,-0.23387 -0.55559,-0.23387 -0.95792,-0.66972 -0.40233,-0.44648 -0.63224,-1.08431 -0.22032,-0.64846 -0.22032,-1.467 0,-0.79729 0.2299,-1.43511 0.2299,-0.64847 0.64181,-1.10558 0.41191,-0.45711 0.96751,-0.70161 0.56518,-0.2445 1.21657,-0.2445 z m -1.52311,3.4868 q 0,0.56341 0.11496,0.98863 0.12452,0.42522 0.33527,0.70161 0.21074,0.27639 0.47896,0.41459 0.2778,0.13819 0.59392,0.13819 0.30653,0 0.57475,-0.13819 0.27781,-0.1382 0.47897,-0.41459 0.20116,-0.27639 0.31611,-0.70161 0.11496,-0.42522 0.11496,-0.98863 0,-0.58468 -0.12454,-1.0099 -0.11494,-0.43585 -0.32569,-0.71225 -0.21074,-0.27639 -0.48854,-0.41458 -0.26822,-0.1382 -0.58434,-0.1382 -0.30654,0 -0.58434,0.14883 -0.26822,0.13819 -0.46938,0.42522 -0.20117,0.28702 -0.31611,0.71224 -0.11496,0.42521 -0.11496,0.98864 z"
           id="path40" /></g></g></g><g
     id="layer7"
     style="display:none"
     transform="translate(-66.220178,-29.235919)"><path
       id="rect71"
       style="fill:none;fill-opacity:0.308492;stroke:#1c1c1c;stroke-width:0.423333;stroke-dasharray:none;stroke-opacity:1;paint-order:markers fill stroke"
       d="M 43.873341,29.248144 H 166.12664 V 180.75205 H 43.873341 Z" /></g></svg>
